<svg version="1.1" xmlns="http://www.w3.org/2000/svg" style="display: block;" viewBox="722 391 568 530" width="568" height="530">
<defs>
	<linearGradient id="Gradient1" gradientUnits="userSpaceOnUse" x1="1203.72" y1="540.223" x2="1220.82" y2="531.941">
		<stop class="stop0" offset="0" stop-opacity="1" stop-color="rgb(120,122,120)"/>
		<stop class="stop1" offset="1" stop-opacity="1" stop-color="rgb(90,91,92)"/>
	</linearGradient>
	<linearGradient id="Gradient2" gradientUnits="userSpaceOnUse" x1="950.509" y1="616.591" x2="976.706" y2="600.371">
		<stop class="stop0" offset="0" stop-opacity="1" stop-color="rgb(224,224,223)"/>
		<stop class="stop1" offset="1" stop-opacity="1" stop-color="rgb(190,190,190)"/>
	</linearGradient>
	<linearGradient id="Gradient3" gradientUnits="userSpaceOnUse" x1="881.142" y1="569.463" x2="898.303" y2="593.371">
		<stop class="stop0" offset="0" stop-opacity="1" stop-color="rgb(178,178,178)"/>
		<stop class="stop1" offset="1" stop-opacity="1" stop-color="rgb(143,143,143)"/>
	</linearGradient>
	<linearGradient id="Gradient4" gradientUnits="userSpaceOnUse" x1="959.752" y1="421.348" x2="934.302" y2="575.33">
		<stop class="stop0" offset="0" stop-opacity="1" stop-color="rgb(227,227,227)"/>
		<stop class="stop1" offset="1" stop-opacity="1" stop-color="rgb(179,180,179)"/>
	</linearGradient>
	<linearGradient id="Gradient5" gradientUnits="userSpaceOnUse" x1="842.974" y1="726.486" x2="1195.51" y2="702.062">
		<stop class="stop0" offset="0" stop-opacity="1" stop-color="rgb(234,234,234)"/>
		<stop class="stop1" offset="1" stop-opacity="1" stop-color="rgb(203,204,203)"/>
	</linearGradient>
</defs>
<path transform="translate(0,0)" fill="url(#Gradient5)" d="M 1139.82 550.352 L 1141.49 547.714 C 1148.76 548.512 1163.52 567.995 1166.63 574.816 C 1167.79 577.365 1168.7 580.865 1170.1 583.214 C 1173.23 588.321 1175.44 594.644 1177.65 600.267 C 1180.42 605.95 1180.49 609.23 1184.56 613.69 L 1184.72 615.199 C 1188.06 616.253 1191.42 617.249 1194.79 618.188 C 1196.84 623.551 1197.64 627.881 1202.55 630.184 C 1204.67 628.829 1204.73 628.683 1206.27 626.638 L 1207.9 624.057 C 1213.2 624.576 1216.47 620.063 1219.4 616.368 C 1218.69 614.953 1216.61 606.18 1214.81 601.903 C 1212.27 597.41 1204.12 583.227 1206.17 579.167 L 1208.05 580.971 L 1209.35 580.883 C 1207.86 576.805 1204.09 555.029 1204.47 551.138 C 1207.18 551.447 1210.13 549.922 1215.1 550.061 C 1216.03 567.828 1219.17 577.592 1231.63 590.744 C 1232.37 591.791 1234.76 595.036 1235.2 595.978 C 1236.56 597.372 1237.57 598.329 1239.04 599.61 L 1239.87 598.895 C 1238.52 595.151 1236.75 590.968 1236.58 587.056 L 1237.93 585.982 L 1241.04 588.274 L 1243.21 586.612 C 1245.95 589.199 1246.35 591.472 1248.5 594.366 C 1260.22 604.111 1252.44 615.628 1255.15 628.352 C 1253.61 631.779 1249.59 642.003 1249.29 645.725 L 1251.33 646.607 L 1249.74 647 C 1253.88 646.464 1255.31 641.695 1257.95 638.711 C 1254.74 647.064 1251.73 651.697 1248.7 658.815 C 1245.62 663.663 1242.34 668.37 1238.37 672.541 C 1232.73 679.63 1230.9 674.96 1224.33 679.301 C 1222.74 680.349 1224.37 688.542 1223.26 690.821 C 1220.51 696.475 1213.05 700.089 1213.81 707.109 C 1214.97 714.607 1220.67 720.395 1217.34 727.523 C 1211.49 732.718 1194.31 732.535 1201.68 745.58 L 1204.81 744.823 C 1201.48 761.665 1194.44 781.185 1184.19 794.985 C 1181.39 801.49 1165.65 822.043 1158.58 823.543 C 1156.45 825.431 1153 828.94 1150.47 829.592 L 1149.49 825.602 C 1146.94 825.635 1142.27 829.972 1141.06 832.305 C 1141.85 833.684 1141.71 835.415 1141.8 836.959 L 1142.54 836.386 L 1142.72 833.974 L 1143.48 834.383 C 1142.75 836.58 1137.46 839.709 1135.26 840.656 C 1130.25 844.457 1123.42 848.06 1117.87 851.219 L 1117.12 850.877 L 1118.29 847.078 C 1113.19 843.716 1091.12 861.198 1085.08 859.218 C 1086.32 855.204 1089.63 849.943 1088.99 847.576 C 1075.01 853.84 1059.16 855.73 1045.31 863.611 C 1039.48 866.924 1040.49 873.015 1033.94 871.154 C 1027.47 869.315 1024.14 872.464 1019.06 875.914 C 1007.51 879.982 985.533 877.982 974.514 875.488 C 973.224 877.086 973.189 877.362 971.306 878.446 C 969.991 879.203 963.664 869.665 961.971 869.618 C 956.71 869.472 951.856 869.8 946.587 869.049 C 943.429 868.599 943.459 863.557 941.106 863.4 C 937.461 863.157 934.797 864.225 930.899 862.442 C 929.8 860.483 929.73 860.082 927.942 858.838 C 926.2 860.154 925.946 860.326 923.997 861.291 C 916.857 858.769 904.498 851.133 897.474 847.218 C 892.808 844.618 893.661 844.233 892.717 839.508 L 890.558 838.241 L 887.296 839.478 C 882.515 836.48 877.15 827.769 874.184 822.9 L 870.759 822.433 C 866.77 817.616 871.246 817.139 868.495 813.826 C 863.514 807.829 849.575 801.114 848.604 793.249 C 844.671 785.853 831.235 784.094 826.358 774.372 C 823.746 769.165 809.311 747.276 808.631 743.23 C 807.469 739.435 807.278 736.567 805.748 732.053 L 804.317 731.028 C 803.466 725.077 799.558 726.849 797.543 714.982 C 796.084 714.848 795.238 714.162 793.974 713.401 C 793.548 707.757 786.006 698.912 784.688 692.82 C 784.315 691.098 784.115 693.075 782.151 690.032 C 777.004 687.001 774.438 682.002 774.437 676.038 C 775.842 672.732 774.929 673.864 777.948 671.796 C 781.004 673.084 782.065 673.613 785.517 673.008 C 792.953 672.224 795.591 671.626 800.283 677.294 L 801.74 678.678 C 803.15 678.17 804.048 677.529 805.306 676.744 C 804.167 672.101 806.739 655.778 811.677 653.19 C 813.481 654.284 813.932 654.275 816.022 654.069 C 822.949 644.65 817.242 624.375 829.725 616.044 C 833.284 618.79 828.292 623.46 830.319 630.356 L 832.607 631.824 C 836.365 626.476 833.833 621.055 838.437 614.451 L 839.565 615.563 C 839.972 620.299 830.745 637.152 833.924 643.261 L 835.934 643.32 C 839.705 641.025 838.629 637.998 842.056 633.598 C 850.165 634.608 850.822 621.567 854.288 616.146 C 856.04 613.404 859.201 610.295 861.504 607.942 L 865.044 603.551 L 867.562 605.912 L 870.106 605.027 C 873.561 603.711 880.618 604.396 882.864 607.098 C 885.784 606.696 886.11 606.336 888.73 604.816 C 894.397 607.436 899.667 605.509 902.727 605.844 C 908.167 616.425 912.207 616.272 920.041 624.595 C 921.287 625.919 923.245 633.369 923.798 635.374 C 924.996 635.771 926.194 636.168 927.392 636.565 C 929.894 643.694 921.603 644.755 932.747 649.694 C 936.129 654.728 931.935 658.004 941.685 659.959 C 953.094 662.247 950.59 667.44 955.96 672.682 C 966.753 673.415 975.129 673.537 976.705 686.05 L 980.64 682.318 C 992.816 678.742 988.146 685.069 996.601 687.076 C 999.991 687.88 1006.26 680.618 1007.8 680.371 C 1011.18 679.832 1023.32 677.796 1026.39 677.201 C 1027.29 677.027 1027.52 679.448 1033.26 679.672 L 1035.85 677.004 C 1050.42 675.151 1044.69 701.338 1065.13 688.017 C 1067.79 686.285 1085.9 682.985 1086.42 682.619 C 1086.23 681.059 1085.49 680.18 1084.66 678.841 C 1087.88 671.488 1099.2 666.345 1103.39 658.852 C 1107.47 651.552 1116.94 618.814 1118.63 617.027 C 1118.78 616.871 1118.94 616.731 1119.1 616.583 C 1117.51 613.602 1118.02 614.269 1118.28 610.454 C 1117.86 605.95 1116.88 600.331 1116.32 595.616 C 1115.14 588.368 1105.63 574.19 1106.76 569.697 C 1109.99 570.129 1111.8 570.362 1115.09 569.747 C 1116.09 564.873 1120.07 561.421 1123.52 557.584 C 1129.13 562.337 1133.99 563.967 1140.02 567.755 L 1141.31 567.31 L 1144.68 567.078 C 1145.31 558.913 1144.2 557.555 1139.82 550.352 z"/>
<path transform="translate(0,0)" fill="rgb(139,139,139)" d="M 1209.35 580.883 C 1207.86 576.805 1204.09 555.029 1204.47 551.138 C 1207.18 551.447 1210.13 549.922 1215.1 550.061 C 1216.03 567.828 1219.17 577.592 1231.63 590.744 C 1232.37 591.791 1234.76 595.036 1235.2 595.978 C 1236.56 597.372 1237.57 598.329 1239.04 599.61 L 1239.87 598.895 C 1238.52 595.151 1236.75 590.968 1236.58 587.056 L 1237.93 585.982 L 1241.04 588.274 L 1243.21 586.612 C 1245.95 589.199 1246.35 591.472 1248.5 594.366 C 1260.22 604.111 1252.44 615.628 1255.15 628.352 C 1253.61 631.779 1249.59 642.003 1249.29 645.725 L 1251.33 646.607 L 1249.74 647 C 1253.88 646.464 1255.31 641.695 1257.95 638.711 C 1254.74 647.064 1251.73 651.697 1248.7 658.815 C 1245.62 663.663 1242.34 668.37 1238.37 672.541 C 1232.73 679.63 1230.9 674.96 1224.33 679.301 C 1222.74 680.349 1224.37 688.542 1223.26 690.821 C 1220.51 696.475 1213.05 700.089 1213.81 707.109 C 1214.97 714.607 1220.67 720.395 1217.34 727.523 C 1211.49 732.718 1194.31 732.535 1201.68 745.58 L 1204.81 744.823 C 1201.48 761.665 1194.44 781.185 1184.19 794.985 C 1181.39 801.49 1165.65 822.043 1158.58 823.543 C 1156.45 825.431 1153 828.94 1150.47 829.592 L 1149.49 825.602 C 1146.94 825.635 1142.27 829.972 1141.06 832.305 C 1141.85 833.684 1141.71 835.415 1141.8 836.959 L 1142.54 836.386 L 1142.72 833.974 L 1143.48 834.383 C 1142.75 836.58 1137.46 839.709 1135.26 840.656 C 1130.25 844.457 1123.42 848.06 1117.87 851.219 L 1117.12 850.877 L 1118.29 847.078 C 1113.19 843.716 1091.12 861.198 1085.08 859.218 C 1086.32 855.204 1089.63 849.943 1088.99 847.576 C 1093.11 846.941 1094.29 845.716 1097.59 843.167 C 1106.08 845.721 1102.55 845.941 1109.95 842.108 C 1110.67 841.598 1112.9 839.119 1113.64 838.329 L 1114.12 836.533 C 1116 833.742 1119.11 833.34 1122.38 832.453 C 1124.95 823.701 1134.81 827.097 1133.45 817.285 C 1145.29 815.239 1136.08 805.081 1136.45 799.634 L 1140.59 799.324 C 1142.98 801.805 1145.05 802.223 1148.5 802.621 C 1149.17 800.42 1149.04 801.232 1147.71 798.519 C 1146.1 797.809 1145.49 798 1143.75 798.133 L 1143.14 798.184 L 1142.2 796.873 C 1143.31 795.138 1143.85 794.116 1144.77 792.269 C 1146.07 791.791 1147.38 791.354 1148.71 790.958 L 1147.6 788.314 L 1148.77 786.461 C 1151.3 788.01 1148.07 793.086 1152.49 795.064 C 1156.67 792.826 1158.53 792.066 1158.67 787.098 C 1157.14 785.609 1156.93 785.643 1156.51 783.508 C 1159.27 783.969 1159.97 784.334 1162.44 783.315 L 1160.47 780.842 L 1160.87 780.149 L 1165.2 781.2 C 1167.8 780.074 1166.92 780.814 1168.36 777.982 C 1167.87 776.648 1167.36 775.727 1167.53 774.329 L 1171.52 773.969 L 1169.39 775.458 C 1170.22 778.335 1169.64 778.172 1171.53 779.285 C 1173.75 775.745 1174.65 774.534 1177.43 771.419 C 1181.41 767.404 1189.84 768.607 1187.69 756.931 L 1188.25 756.182 L 1186.16 753.889 C 1182.01 756.208 1178.56 761.243 1176.35 765.354 C 1172.98 767.193 1174.49 766.8 1170.62 766.808 C 1168.44 765.324 1167.39 764.607 1165 763.507 L 1169.34 758.928 C 1168.44 758.102 1168.29 757.624 1167.62 756.524 C 1169.07 753.74 1170.18 753.837 1171.42 751.311 C 1174.23 745.616 1174.25 741.048 1176.25 734.79 L 1175 733.33 C 1177.14 733.128 1181.02 732.296 1183.15 731.842 L 1186.04 733.143 L 1187.53 732.322 L 1189.81 730.773 L 1191.25 731.27 C 1191.51 733.232 1191.81 735.187 1192.17 737.133 L 1194 736.932 C 1197.07 733.523 1193.31 733.745 1194.75 727.912 C 1200.38 724.172 1205.11 729.523 1201.56 721.518 C 1201.01 720.291 1204.27 714.624 1205.01 712.782 L 1203.68 711.985 L 1200.52 713.255 L 1200.14 705.489 C 1201.57 698.876 1206.45 700.635 1209.83 692.92 C 1215.25 680.554 1214.55 659.815 1223.59 650.492 C 1223.98 646.402 1223.7 646.679 1221.02 644.102 C 1219.52 639.266 1224.68 632.397 1215.26 629.437 L 1206.27 626.638 L 1207.9 624.057 C 1213.2 624.576 1216.47 620.063 1219.4 616.368 C 1218.69 614.953 1216.61 606.18 1214.81 601.903 C 1212.27 597.41 1204.12 583.227 1206.17 579.167 L 1208.05 580.971 L 1209.35 580.883 z"/>
<path transform="translate(0,0)" fill="rgb(112,113,113)" d="M 1235.2 595.978 C 1236.56 597.372 1237.57 598.329 1239.04 599.61 L 1239.87 598.895 C 1238.52 595.151 1236.75 590.968 1236.58 587.056 L 1237.93 585.982 L 1241.04 588.274 L 1243.21 586.612 C 1245.95 589.199 1246.35 591.472 1248.5 594.366 C 1260.22 604.111 1252.44 615.628 1255.15 628.352 C 1253.61 631.779 1249.59 642.003 1249.29 645.725 L 1251.33 646.607 L 1249.74 647 C 1253.88 646.464 1255.31 641.695 1257.95 638.711 C 1254.74 647.064 1251.73 651.697 1248.7 658.815 C 1245.62 663.663 1242.34 668.37 1238.37 672.541 L 1235.53 670.837 C 1235.93 667.061 1236.35 657.373 1234.57 654.19 C 1231.46 651.775 1234.01 651.673 1228.71 649.85 C 1228.71 647.913 1229.33 644.929 1229.66 642.917 L 1230.31 641.696 C 1228.44 639.23 1227.2 637.891 1226.09 634.963 C 1227.87 630.394 1230.17 627.182 1232.82 623.133 C 1232.81 619.067 1232.26 619.523 1229.86 615.493 C 1229.96 611.955 1233.13 608.38 1235.29 605.372 C 1234.57 601.003 1234.48 600.326 1235.2 595.978 z"/>
<path transform="translate(0,0)" fill="rgb(51,51,51)" d="M 1241.04 588.274 L 1243.21 586.612 C 1245.95 589.199 1246.35 591.472 1248.5 594.366 C 1248.95 601.097 1251.78 600.032 1248.06 608.468 C 1245.3 604.784 1247.23 598.083 1241.59 589.137 L 1241.04 588.274 z"/>
<path transform="translate(0,0)" fill="rgb(112,113,113)" d="M 1209.35 580.883 C 1207.86 576.805 1204.09 555.029 1204.47 551.138 C 1207.18 551.447 1210.13 549.922 1215.1 550.061 C 1216.03 567.828 1219.17 577.592 1231.63 590.744 C 1230.69 593.741 1230.77 595.399 1228.67 597.056 C 1226.98 595.128 1226.82 594.632 1224.46 594.149 L 1221.37 596.717 C 1219.15 595.731 1217.07 590.172 1215.91 587.637 L 1214.33 588.906 C 1212.52 586.182 1211.01 583.699 1209.35 580.883 z"/>
<path transform="translate(0,0)" fill="rgb(51,51,51)" d="M 1175.68 787.043 C 1176.68 779.527 1178.05 781.968 1182.33 778.722 C 1184.93 776.753 1185.39 773.078 1190.38 773.139 C 1190.08 779.932 1183.79 788.923 1184.19 794.985 C 1181.39 801.49 1165.65 822.043 1158.58 823.543 C 1155.96 824.401 1156.98 824.484 1154.67 823.555 C 1154.27 821.144 1155.68 818.886 1156.74 816.514 C 1161.87 814.474 1178.3 795.267 1175.68 787.043 z"/>
<path transform="translate(0,0)" fill="rgb(51,51,51)" d="M 1113.64 838.329 C 1124.39 845.426 1128.72 832.384 1139.89 831.835 C 1136.53 836.267 1135.61 835.978 1135.26 840.656 C 1130.25 844.457 1123.42 848.06 1117.87 851.219 L 1117.12 850.877 L 1118.29 847.078 C 1113.19 843.716 1091.12 861.198 1085.08 859.218 C 1086.32 855.204 1089.63 849.943 1088.99 847.576 C 1093.11 846.941 1094.29 845.716 1097.59 843.167 C 1106.08 845.721 1102.55 845.941 1109.95 842.108 C 1110.67 841.598 1112.9 839.119 1113.64 838.329 z"/>
<path transform="translate(0,0)" fill="rgb(14,15,14)" d="M 1175.68 787.043 C 1178.3 795.267 1161.87 814.474 1156.74 816.514 C 1152.42 820.52 1151.02 821.343 1145.84 824.279 C 1144.24 823.385 1143.15 823.052 1142.49 821.388 C 1149.83 811.672 1162.36 803.808 1169.77 793.904 C 1172.29 790.534 1172.27 790.02 1175.68 787.043 z"/>
<path transform="translate(0,0)" fill="rgb(160,161,161)" d="M 1219.4 616.368 L 1222.33 608.658 C 1224.2 608.867 1225.09 609.899 1226.58 611.105 C 1230.05 617.852 1224.66 621.432 1223.94 628.088 C 1223.08 636.142 1228.3 643.725 1225.03 651.115 C 1224.57 650.952 1223.85 650.783 1223.59 650.492 C 1223.98 646.402 1223.7 646.679 1221.02 644.102 C 1219.52 639.266 1224.68 632.397 1215.26 629.437 L 1206.27 626.638 L 1207.9 624.057 C 1213.2 624.576 1216.47 620.063 1219.4 616.368 z"/>
<path transform="translate(0,0)" fill="rgb(189,190,189)" d="M 1181.13 743.003 L 1182.07 739.389 L 1183.25 738.952 C 1188.26 745.88 1184.77 748.827 1186.16 753.889 C 1182.01 756.208 1178.56 761.243 1176.35 765.354 C 1172.98 767.193 1174.49 766.8 1170.62 766.808 C 1168.44 765.324 1167.39 764.607 1165 763.507 L 1169.34 758.928 C 1171.65 756.109 1173.69 754.746 1175.71 751.509 C 1178.3 747.361 1175.78 748.428 1178.02 744.65 L 1181.13 743.003 z"/>
<path transform="translate(0,0)" fill="rgb(51,51,51)" d="M 1228.71 649.85 C 1234.01 651.673 1231.46 651.775 1234.57 654.19 C 1236.35 657.373 1235.93 667.061 1235.53 670.837 L 1234.13 669.097 L 1234.9 666.984 C 1226.65 662.586 1221.62 670.932 1219.16 677.184 C 1215.26 672.759 1219.42 669.815 1219.34 666.698 C 1219.06 654.505 1225.86 658.443 1228.71 649.85 z"/>
<path transform="translate(0,0)" fill="rgb(14,15,14)" d="M 1122.38 832.453 C 1131.07 833.671 1133.7 826.708 1144.55 822.572 C 1143.8 824.018 1140.14 830.758 1139.89 831.835 C 1128.72 832.384 1124.39 845.426 1113.64 838.329 L 1114.12 836.533 C 1116 833.742 1119.11 833.34 1122.38 832.453 z"/>
<path transform="translate(0,0)" fill="rgb(14,15,14)" d="M 1214.81 601.903 C 1212.27 597.41 1204.12 583.227 1206.17 579.167 L 1208.05 580.971 L 1209.35 580.883 C 1211.01 583.699 1212.52 586.182 1214.33 588.906 C 1216.2 592.443 1219.89 597.559 1219.62 600.676 C 1217.72 601.273 1216.76 601.558 1214.81 601.903 z"/>
<path transform="translate(0,0)" fill="rgb(160,161,161)" d="M 1178.02 744.65 C 1175.91 744.138 1176.85 744.626 1175.22 742.942 C 1175.32 739.451 1175.65 736.673 1179.24 735.628 C 1181.2 738.037 1180.93 739.836 1181.13 743.003 L 1178.02 744.65 z"/>
<path transform="translate(0,0)" fill="rgb(189,190,189)" d="M 805.748 732.053 C 811.934 735.718 813.835 738.826 818.36 744.209 L 818.762 744.692 C 821.114 745.476 829.101 747.855 830.574 749.141 L 831.129 750.635 L 829.935 751.949 L 831.385 751.685 L 830.324 752.092 C 827.788 750.063 826.88 748.575 824.128 748.355 C 822.049 758.086 839.063 768.032 848.22 764.471 C 849.688 764.463 854.577 763.119 856.274 762.665 C 858.561 768.021 869.004 782.969 873.002 788.037 C 875.302 790.954 881.508 796.428 884.122 799.687 C 886.466 802.609 886.137 807.44 889.081 809.709 C 900.692 818.662 911.92 825.367 922.737 835.452 C 927.238 836.347 932.858 837.14 936.8 839.274 C 939.626 843.518 938.058 842.479 938.615 847.473 C 938.898 850.006 950.518 851.797 950.947 852.594 C 953.81 857.914 949.366 856.315 955.047 860.487 L 961.86 860.502 L 959.915 858.361 C 965.825 856.035 983.15 862.501 989.059 863.271 C 992.086 863.666 997.546 856.2 1006.25 860.435 C 1007.47 861.029 1010.57 862.842 1011.84 862.877 C 1016.95 864.556 1015.44 866.417 1020.63 868.498 L 1022.37 868.192 C 1023.43 864.297 1022.7 864.245 1025.49 862.555 L 1027.51 862.825 C 1028.58 865.009 1028.58 865.088 1028.53 867.557 L 1031.99 866.766 L 1033.24 863.859 C 1037.55 865.432 1034.58 867.503 1038.3 866.894 L 1038.91 863.966 C 1039.34 855.575 1045.42 860.38 1039.63 850.931 L 1040.22 848.511 L 1046.87 842.661 C 1051.71 844.406 1048.41 839.708 1053.4 839.144 C 1063.31 838.024 1065.96 844.502 1076.24 840.552 C 1079.72 839.059 1082.51 837.638 1085.87 835.892 L 1089.47 835.755 L 1090.98 838.562 C 1096.34 839.844 1094.66 838.642 1097.59 843.167 C 1094.29 845.716 1093.11 846.941 1088.99 847.576 C 1075.01 853.84 1059.16 855.73 1045.31 863.611 C 1039.48 866.924 1040.49 873.015 1033.94 871.154 C 1027.47 869.315 1024.14 872.464 1019.06 875.914 C 1007.51 879.982 985.533 877.982 974.514 875.488 C 973.224 877.086 973.189 877.362 971.306 878.446 C 969.991 879.203 963.664 869.665 961.971 869.618 C 956.71 869.472 951.856 869.8 946.587 869.049 C 943.429 868.599 943.459 863.557 941.106 863.4 C 937.461 863.157 934.797 864.225 930.899 862.442 C 929.8 860.483 929.73 860.082 927.942 858.838 C 926.2 860.154 925.946 860.326 923.997 861.291 C 916.857 858.769 904.498 851.133 897.474 847.218 C 892.808 844.618 893.661 844.233 892.717 839.508 L 890.558 838.241 L 887.296 839.478 C 882.515 836.48 877.15 827.769 874.184 822.9 L 870.759 822.433 C 866.77 817.616 871.246 817.139 868.495 813.826 C 863.514 807.829 849.575 801.114 848.604 793.249 C 844.671 785.853 831.235 784.094 826.358 774.372 C 823.746 769.165 809.311 747.276 808.631 743.23 C 807.469 739.435 807.278 736.567 805.748 732.053 z"/>
<path transform="translate(0,0)" fill="rgb(207,208,208)" d="M 805.748 732.053 C 811.934 735.718 813.835 738.826 818.36 744.209 L 818.762 744.692 C 821.114 745.476 829.101 747.855 830.574 749.141 L 831.129 750.635 L 829.935 751.949 L 831.385 751.685 L 830.324 752.092 C 827.788 750.063 826.88 748.575 824.128 748.355 C 822.049 758.086 839.063 768.032 848.22 764.471 C 849.688 764.463 854.577 763.119 856.274 762.665 C 858.561 768.021 869.004 782.969 873.002 788.037 C 875.302 790.954 881.508 796.428 884.122 799.687 C 886.466 802.609 886.137 807.44 889.081 809.709 C 900.692 818.662 911.92 825.367 922.737 835.452 C 927.238 836.347 932.858 837.14 936.8 839.274 C 939.626 843.518 938.058 842.479 938.615 847.473 C 938.898 850.006 950.518 851.797 950.947 852.594 C 953.81 857.914 949.366 856.315 955.047 860.487 L 952.804 860.95 C 948.724 858.117 939.335 853.879 934.83 851.27 C 933.31 850.39 924.772 855.675 922.068 854.936 C 920.039 851.58 920.016 848.59 919.578 844.688 L 917.794 844.228 L 919.319 844.1 L 919.614 844.61 C 917.548 844.376 916.714 844.468 914.731 845.076 C 909.786 839.009 910.017 844.948 906.932 834.024 C 904.184 834.026 901.147 832.769 899.041 831.023 C 900.292 829.706 901.415 828.775 902.783 827.605 L 901.795 826.212 C 898.438 825 897.801 825.352 894.572 825.945 C 892.582 826.311 890.774 821.887 886.352 819.406 C 884.481 819.856 883.716 820.012 881.814 820.233 C 879.432 818.231 877.672 816.91 875.771 814.387 C 876.221 811.46 876.772 811.727 879.177 809.315 L 879.089 807.947 C 872.647 804.134 865.75 800.293 859.024 797.039 C 853.639 794.433 853.861 797.271 848.604 793.249 C 844.671 785.853 831.235 784.094 826.358 774.372 C 823.746 769.165 809.311 747.276 808.631 743.23 C 807.469 739.435 807.278 736.567 805.748 732.053 z"/>
<path transform="translate(0,0)" fill="rgb(189,189,189)" d="M 1046.87 842.661 C 1051.71 844.406 1048.41 839.708 1053.4 839.144 C 1063.31 838.024 1065.96 844.502 1076.24 840.552 C 1069.76 851.434 1058.94 840.543 1051.85 847.148 C 1050.8 854.66 1045.21 858.8 1038.91 863.966 C 1039.34 855.575 1045.42 860.38 1039.63 850.931 L 1040.22 848.511 L 1046.87 842.661 z"/>
<path transform="translate(0,0)" fill="rgb(235,235,235)" d="M 783.173 677.651 C 784.736 677.271 794.278 675.184 795.151 674.774 C 798.972 679.663 801.406 683.232 806.482 686.938 C 811.42 686.618 811.958 685.706 813.836 690.964 L 817.307 691.766 C 820.094 702.308 831.367 702.852 835.852 711.052 C 837.835 714.68 833.588 723.526 843.467 724.191 C 841.728 732.65 858.992 750.402 853.595 754.86 L 852.088 755.122 L 851.262 757.99 C 853.081 760.066 854.13 760.913 856.274 762.665 C 854.577 763.119 849.688 764.463 848.22 764.471 C 839.063 768.032 822.049 758.086 824.128 748.355 C 826.88 748.575 827.788 750.063 830.324 752.092 L 831.385 751.685 L 829.935 751.949 L 831.129 750.635 L 830.574 749.141 C 829.101 747.855 821.114 745.476 818.762 744.692 L 818.36 744.209 C 813.835 738.826 811.934 735.718 805.748 732.053 L 804.317 731.028 C 803.466 725.077 799.558 726.849 797.543 714.982 C 796.084 714.848 795.238 714.162 793.974 713.401 C 793.548 707.757 786.006 698.912 784.688 692.82 C 784.315 691.098 784.115 693.075 782.151 690.032 C 780.738 687.656 780.024 686.532 779.086 683.942 C 780.119 681.086 781.275 679.983 783.173 677.651 z"/>
<path transform="translate(0,0)" fill="rgb(223,223,223)" d="M 783.173 677.651 C 784.736 677.271 794.278 675.184 795.151 674.774 C 798.972 679.663 801.406 683.232 806.482 686.938 C 811.42 686.618 811.958 685.706 813.836 690.964 L 817.307 691.766 C 813.071 694.013 814.221 694.079 810.043 691.804 C 807.091 690.197 798.702 685.046 795.683 685.842 C 796.941 689.907 799.862 691.449 803.242 694.339 C 798.639 705.782 800.234 700.63 802.623 710.615 C 801.713 711.469 797.866 714.47 797.543 714.982 C 796.084 714.848 795.238 714.162 793.974 713.401 C 793.548 707.757 786.006 698.912 784.688 692.82 C 784.315 691.098 784.115 693.075 782.151 690.032 C 780.738 687.656 780.024 686.532 779.086 683.942 C 780.119 681.086 781.275 679.983 783.173 677.651 z"/>
<path transform="translate(0,0)" fill="rgb(223,223,223)" d="M 848.22 764.471 C 847.346 763.031 846.798 762.651 845.618 761.46 C 837.214 760.62 837.773 759.41 831.892 753.562 L 833.273 752.423 C 836.546 753.648 837.504 756.014 839.986 759.177 C 844.973 760.977 847.104 756.89 852.088 755.122 L 851.262 757.99 C 853.081 760.066 854.13 760.913 856.274 762.665 C 854.577 763.119 849.688 764.463 848.22 764.471 z"/>
<path transform="translate(0,0)" fill="rgb(223,223,223)" d="M 1197.1 637.001 C 1199.46 635.175 1198.37 635.466 1201.06 635.773 C 1202.68 637.405 1204.34 638.992 1206.05 640.53 C 1211.61 639.747 1211.28 636.32 1215.59 636.673 C 1217.51 638.989 1217.53 639.885 1218.15 642.868 C 1219.35 643.509 1219.69 643.821 1221.02 644.102 C 1223.7 646.679 1223.98 646.402 1223.59 650.492 C 1214.55 659.815 1215.25 680.554 1209.83 692.92 C 1206.45 700.635 1201.57 698.876 1200.14 705.489 C 1197.05 711.904 1191.3 712.681 1183.68 716.573 C 1181.83 713.016 1180.81 710.728 1177.43 708.563 L 1177.03 708.108 C 1176.74 706.467 1176.82 706.145 1176.99 704.547 L 1177.04 704.063 L 1174.51 701.05 C 1173.34 700.231 1170.57 692.693 1169.77 690.755 C 1166.62 678.934 1172.85 661.512 1179.21 651.439 C 1181.53 647.756 1184.06 649.292 1186.44 648.227 C 1190.78 646.283 1192.15 641.102 1197.1 637.001 z"/>
<path transform="translate(0,0)" fill="rgb(207,208,208)" d="M 832.607 631.824 C 836.365 626.476 833.833 621.055 838.437 614.451 L 839.565 615.563 C 839.972 620.299 830.745 637.152 833.924 643.261 L 835.934 643.32 C 839.705 641.025 838.629 637.998 842.056 633.598 C 850.165 634.608 850.822 621.567 854.288 616.146 C 856.04 613.404 859.201 610.295 861.504 607.942 C 867.001 617.011 865.351 620.334 855.019 621.179 C 852.799 627.208 856.956 630.298 856.639 633.617 L 853.729 633.059 C 850.403 637.701 847.141 642.693 843.052 646.67 C 840.507 649.144 838.882 649.714 839.595 653.699 C 848.741 670.837 845.588 680.325 840.991 697.054 C 840.615 698.424 843.468 719.62 844.099 721.65 L 843.467 724.191 C 833.588 723.526 837.835 714.68 835.852 711.052 C 831.367 702.852 820.094 702.308 817.307 691.766 L 813.836 690.964 C 811.958 685.706 811.42 686.618 806.482 686.938 C 801.406 683.232 798.972 679.663 795.151 674.774 C 794.278 675.184 784.736 677.271 783.173 677.651 C 781.275 679.983 780.119 681.086 779.086 683.942 C 780.024 686.532 780.738 687.656 782.151 690.032 C 777.004 687.001 774.438 682.002 774.437 676.038 C 775.842 672.732 774.929 673.864 777.948 671.796 C 781.004 673.084 782.065 673.613 785.517 673.008 C 792.953 672.224 795.591 671.626 800.283 677.294 L 801.74 678.678 C 803.15 678.17 804.048 677.529 805.306 676.744 C 804.167 672.101 806.739 655.778 811.677 653.19 C 813.481 654.284 813.932 654.275 816.022 654.069 C 822.949 644.65 817.242 624.375 829.725 616.044 C 833.284 618.79 828.292 623.46 830.319 630.356 L 832.607 631.824 z"/>
<path transform="translate(0,0)" fill="rgb(189,189,189)" d="M 816.022 654.069 C 822.949 644.65 817.242 624.375 829.725 616.044 C 833.284 618.79 828.292 623.46 830.319 630.356 L 828.665 634.503 C 827.758 630.808 828.357 630.33 825.797 628.6 C 822.108 633.065 821.619 652.21 819.915 658.224 C 819.312 660.351 810.486 670.535 809.634 673.432 C 808.729 676.513 811.152 680.47 809.021 683.351 C 805.388 683.103 804.645 681.832 801.74 678.678 C 803.15 678.17 804.048 677.529 805.306 676.744 C 804.167 672.101 806.739 655.778 811.677 653.19 C 813.481 654.284 813.932 654.275 816.022 654.069 z"/>
<path transform="translate(0,0)" fill="rgb(51,51,51)" d="M 830.319 630.356 L 832.607 631.824 C 832.009 634.656 831.67 638.353 829.79 640.243 C 828.468 637.873 828.665 637.334 828.665 634.503 L 830.319 630.356 z"/>
<path transform="translate(0,0)" fill="rgb(183,184,184)" d="M 1119.1 616.583 C 1120.34 620.94 1121.79 625.171 1121.13 629.721 C 1120.82 631.162 1120.57 631.503 1120.8 632.912 C 1120.34 639.876 1118.64 646.224 1120.69 652.39 L 1119.03 654.012 C 1120.73 659.027 1121.16 656.475 1123.18 658.617 C 1125.56 661.142 1124.02 672.81 1123.68 676.078 C 1117.34 679.52 1109.49 692.361 1102.22 694.892 L 1103.72 695.615 L 1106.36 694.576 L 1105.87 696.169 C 1091.39 703.431 1066.56 687.877 1059.59 698.887 C 1057.75 700.614 1057.29 700.835 1055.08 702.107 L 1053.51 701.597 C 1053.24 699.997 1053 698.463 1052.6 696.888 L 1050.48 697.621 C 1043.19 687.541 1041.15 689.201 1029.47 689.476 C 1027.58 687.531 1025.5 685.683 1023.51 683.846 C 1022.34 687.234 1022.07 689.775 1018.06 689.986 L 1016.31 687.118 L 1014.68 686.914 C 1012.94 690.466 1012.35 691.993 1008.8 693.629 C 1007.53 692.204 1007.4 691.337 1006.81 689.54 L 1006.59 688.853 C 1003.82 688.893 1004.24 689.309 1001.76 691.566 C 1002.75 695.353 1001.95 690.749 1006.4 694.176 C 1006.12 697.074 1006.48 695.975 1004.59 698.361 C 1004.14 696.189 1004.51 696.036 1003.18 694.881 C 998.829 702.162 987.999 705.096 985.322 697.45 L 985.615 697.967 C 986.468 693.704 986.167 694.849 984.495 690.294 C 981.035 690.576 983.909 691.915 979.502 691.946 C 978.231 689.803 977.655 688.327 976.705 686.05 L 980.64 682.318 C 992.816 678.742 988.146 685.069 996.601 687.076 C 999.991 687.88 1006.26 680.618 1007.8 680.371 C 1011.18 679.832 1023.32 677.796 1026.39 677.201 C 1027.29 677.027 1027.52 679.448 1033.26 679.672 L 1035.85 677.004 C 1050.42 675.151 1044.69 701.338 1065.13 688.017 C 1067.79 686.285 1085.9 682.985 1086.42 682.619 C 1086.23 681.059 1085.49 680.18 1084.66 678.841 C 1087.88 671.488 1099.2 666.345 1103.39 658.852 C 1107.47 651.552 1116.94 618.814 1118.63 617.027 C 1118.78 616.871 1118.94 616.731 1119.1 616.583 z"/>
<path transform="translate(0,0)" fill="rgb(189,190,189)" d="M 1119.03 654.012 C 1120.73 659.027 1121.16 656.475 1123.18 658.617 C 1125.56 661.142 1124.02 672.81 1123.68 676.078 C 1117.34 679.52 1109.49 692.361 1102.22 694.892 C 1097.8 696.105 1089.82 696.278 1087.13 692.051 C 1089.52 690.168 1096.59 695.713 1101.95 692.91 C 1101.12 689.926 1101.41 690.872 1098.86 688.444 C 1106.85 685.881 1114.05 675.465 1117.05 667.873 C 1119.11 662.649 1118.34 660.642 1116.28 655.964 L 1119.03 654.012 z"/>
<path transform="translate(0,0)" fill="rgb(207,208,208)" d="M 888.73 604.816 C 894.397 607.436 899.667 605.509 902.727 605.844 C 908.167 616.425 912.207 616.272 920.041 624.595 C 921.287 625.919 923.245 633.369 923.798 635.374 C 924.996 635.771 926.194 636.168 927.392 636.565 C 929.894 643.694 921.603 644.755 932.747 649.694 C 936.129 654.728 931.935 658.004 941.685 659.959 C 953.094 662.247 950.59 667.44 955.96 672.682 C 966.753 673.415 975.129 673.537 976.705 686.05 C 977.655 688.327 978.231 689.803 979.502 691.946 C 983.909 691.915 981.035 690.576 984.495 690.294 C 983.074 694.52 982.898 695.647 979.744 698.744 L 977.409 699.367 C 972.857 696.379 972.162 690.99 967.565 687.4 C 966.731 691.423 972.907 698.326 975.564 701.336 C 973.324 700.86 966.086 699.459 964.367 698.745 C 960.802 696.12 957.144 692.974 952.891 691.985 C 948.306 683.637 917.149 668.553 921.034 656.201 C 928.061 633.868 900.056 630.898 904.529 613.929 L 903.318 612.233 C 900.1 611.127 901.408 611.333 897.349 612.543 L 893.473 614.158 C 887.828 612.368 892.946 608.89 882.864 607.098 C 885.784 606.696 886.11 606.336 888.73 604.816 z"/>
<path transform="translate(0,0)" fill="rgb(207,208,208)" d="M 952.891 691.985 C 956.919 689.253 955.639 689.243 959.79 689.458 C 962.676 691.512 963.743 695.318 964.367 698.745 C 960.802 696.12 957.144 692.974 952.891 691.985 z"/>
<path transform="translate(0,0)" fill="rgb(189,189,189)" d="M 1174.51 701.05 L 1177.04 704.063 L 1176.99 704.547 C 1176.82 706.145 1176.74 706.467 1177.03 708.108 L 1177.43 708.563 C 1180.81 710.728 1181.83 713.016 1183.68 716.573 C 1191.3 712.681 1197.05 711.904 1200.14 705.489 L 1200.52 713.255 L 1203.68 711.985 L 1205.01 712.782 C 1204.27 714.624 1201.01 720.291 1201.56 721.518 C 1205.11 729.523 1200.38 724.172 1194.75 727.912 C 1193.31 733.745 1197.07 733.523 1194 736.932 L 1192.17 737.133 C 1191.81 735.187 1191.51 733.232 1191.25 731.27 L 1189.81 730.773 L 1187.53 732.322 L 1186.04 733.143 L 1183.15 731.842 C 1181.02 732.296 1177.14 733.128 1175 733.33 L 1172.31 732.68 L 1171.48 734.095 C 1172.33 735.075 1172.25 735.039 1173.45 735.53 C 1172.75 740.908 1165.07 753.737 1160.76 756.85 L 1159.05 756.334 L 1161.39 752.926 L 1160.8 751.466 L 1157.12 750.286 C 1171.71 749.486 1173.35 732.74 1167.02 722.305 L 1171.83 717.968 C 1171.04 715.591 1171.15 714.554 1169.25 713.251 C 1168.73 715.899 1168.22 718.058 1167.54 720.663 C 1165.94 719.874 1164.43 719.429 1162.75 718.869 C 1165.7 716.588 1164.96 717.735 1166.07 714.599 C 1164.76 711.035 1165.65 712.306 1162.57 709.852 C 1172.13 711.971 1166.1 706.207 1174.51 701.05 z"/>
<path transform="translate(0,0)" fill="rgb(207,208,208)" d="M 1183.68 716.573 C 1191.3 712.681 1197.05 711.904 1200.14 705.489 L 1200.52 713.255 C 1197.55 718.594 1195.77 722.871 1189.52 723.31 C 1182.62 720.692 1180.43 714.858 1177.43 708.563 C 1180.81 710.728 1181.83 713.016 1183.68 716.573 z"/>
<path transform="translate(0,0)" fill="rgb(183,184,184)" d="M 1128.3 745.735 L 1129.23 748.819 L 1133.5 750.839 L 1134.08 752.894 C 1130.67 752.436 1132.12 750.352 1129.31 751.753 C 1128.93 757.4 1132.52 757.729 1132.78 764.489 C 1132.3 765.182 1131.57 765.492 1130.77 766.013 L 1126.9 765.373 C 1129.4 767.407 1131.59 769.556 1134.58 770.599 C 1135.98 770.309 1137.37 770.033 1138.77 769.771 L 1143.79 768.69 C 1140.87 771.597 1141.28 777.886 1140.07 777.952 C 1138.85 778.018 1137.55 777.338 1136.42 776.902 C 1134.4 774.501 1133.67 773.419 1132.05 770.728 C 1127.04 771.174 1128.22 775.845 1126.55 778.968 L 1127.38 781.518 C 1128.21 785.013 1126.19 789.823 1125.03 793.486 C 1117.33 800.643 1120.02 797.253 1116.14 806.515 L 1119.32 806.501 C 1119.07 808.311 1118.22 808.855 1116.92 810.173 C 1117.38 812.04 1117.8 813.916 1118.18 815.8 L 1116.75 816.941 C 1115.45 815.775 1115.22 815.523 1114.15 814.147 L 1112.94 815.167 C 1113.55 816.712 1113.62 817.364 1115.01 818.275 L 1111.19 821.315 C 1109.53 818.721 1107.54 816.452 1105.59 814.07 C 1108.63 811.16 1111.7 808.282 1114.8 805.437 L 1115.57 804.758 C 1116.05 801.952 1117.22 800.426 1118.85 797.984 C 1121.82 793.524 1120.36 785.875 1119.89 780.295 C 1120.22 779.297 1120.06 779.66 1119.83 778.411 L 1118.17 778.767 L 1114.35 784.743 L 1113.45 784.808 C 1110.61 781.48 1109.21 781.606 1105.37 779.539 L 1105.15 777.541 L 1107 776.087 L 1109.98 777.852 C 1112.56 777.224 1112.92 775.973 1114.69 773.777 C 1118.72 768.77 1116.21 773.39 1120.97 773.106 L 1121.59 770.854 C 1118.28 767.549 1117.85 766.065 1116.75 761.499 C 1119.32 754.132 1125.77 759.959 1128.3 745.735 z"/>
<path transform="translate(0,0)" fill="rgb(189,189,189)" d="M 1127.38 781.518 C 1126.27 782.942 1125.71 782.983 1124.03 783.589 L 1123.01 782.531 C 1122.47 778.889 1122.46 774.83 1125.4 772.154 L 1126.68 773.09 C 1126.92 775.576 1126.79 776.459 1126.55 778.968 L 1127.38 781.518 z"/>
<path transform="translate(0,0)" fill="rgb(223,223,223)" d="M 865.044 603.551 L 867.562 605.912 L 870.106 605.027 C 873.561 603.711 880.618 604.396 882.864 607.098 C 892.946 608.89 887.828 612.368 893.473 614.158 L 897.349 612.543 C 898.118 614.446 898.755 616.426 899.716 618.24 L 899.63 616.053 C 901.18 616.109 900.491 615.856 901.714 616.948 L 900.925 620.461 C 894.359 622.161 877.392 604.971 867.495 619.261 C 865.956 621.482 864.434 624.726 864.446 627.399 L 865.411 628.733 C 861.413 632.804 859.681 634.657 857.594 640.064 L 859.218 641.262 L 852.997 644.707 C 846.672 650.287 841.741 648.836 839.595 653.699 C 838.882 649.714 840.507 649.144 843.052 646.67 C 847.141 642.693 850.403 637.701 853.729 633.059 L 856.639 633.617 C 856.956 630.298 852.799 627.208 855.019 621.179 C 865.351 620.334 867.001 617.011 861.504 607.942 L 865.044 603.551 z"/>
<path transform="translate(0,0)" fill="rgb(223,223,223)" d="M 852.997 644.707 C 850.946 641.04 850.816 640.024 852.7 636.582 L 855.142 636.186 C 856.763 637.416 856.861 638.18 857.594 640.064 L 859.218 641.262 L 852.997 644.707 z"/>
<path transform="translate(0,0)" fill="rgb(189,190,189)" d="M 1169.77 690.755 C 1170.57 692.693 1173.34 700.231 1174.51 701.05 C 1166.1 706.207 1172.13 711.971 1162.57 709.852 L 1162.02 708.747 C 1162.73 708.541 1163.07 708.302 1163.73 707.957 C 1161.89 705.191 1162.2 704.677 1159.47 703.477 C 1157.61 705.609 1157.63 712.35 1158.66 715.066 C 1159.87 714.963 1160.49 714.948 1161.71 714.981 C 1156.75 722.991 1167.97 727.528 1154.77 738.148 L 1153.94 737.795 C 1155.81 732.27 1159.8 724.616 1156.28 719.654 C 1154.67 722.489 1151.62 731.59 1150.35 735.081 C 1147.72 735.98 1148.8 735.875 1145.57 734.393 C 1144.09 741.04 1146.55 742.589 1139.5 745.805 C 1137.62 743.945 1138.29 742.127 1137.95 738.854 L 1135.94 741.86 L 1137.99 740.96 L 1136.09 741.546 C 1135.07 744.198 1135.09 744.425 1132.89 746.051 L 1131.36 745.254 C 1132.07 741.85 1136.27 736.592 1138.45 733.485 C 1137.94 731.405 1137.4 730.244 1138.18 728.282 C 1142.3 737.366 1142.64 733.522 1139.56 743.416 C 1143.29 738.647 1142.7 740.23 1142.68 733.413 C 1147.07 730.495 1145.36 734.37 1149.3 732.465 C 1149.93 725.232 1153.95 701.401 1161.6 698.758 C 1166.27 697.145 1166.99 694.815 1169.77 690.755 z"/>
<path transform="translate(0,0)" fill="rgb(183,184,184)" d="M 1184.72 615.199 C 1188.06 616.253 1191.42 617.249 1194.79 618.188 C 1196.84 623.551 1197.64 627.881 1202.55 630.184 C 1204.67 628.829 1204.73 628.683 1206.27 626.638 L 1215.26 629.437 C 1224.68 632.397 1219.52 639.266 1221.02 644.102 C 1219.69 643.821 1219.35 643.509 1218.15 642.868 C 1217.53 639.885 1217.51 638.989 1215.59 636.673 C 1211.28 636.32 1211.61 639.747 1206.05 640.53 C 1204.34 638.992 1202.68 637.405 1201.06 635.773 C 1198.37 635.466 1199.46 635.175 1197.1 637.001 C 1196.62 637.077 1196.14 637.144 1195.65 637.203 C 1191.3 637.729 1190.87 637.225 1187.98 634.992 C 1186.26 630.498 1190.58 630.896 1190.05 629.614 C 1188.53 625.946 1183.85 619.84 1184.72 615.199 z"/>
<path transform="translate(0,0)" fill="rgb(183,184,184)" d="M 1116.16 822.944 L 1116.95 823.28 C 1117.92 822.854 1118.33 822.654 1119.26 822.112 L 1120.03 821.656 L 1122.73 823.474 L 1122.87 821.609 L 1119.75 818.491 C 1121.47 814.229 1123.37 816.28 1125.84 811.927 L 1122.46 810.471 C 1121.63 807.998 1121.57 809.183 1122.68 806.807 L 1127.24 806.083 C 1129.3 803.734 1128.62 803.894 1128.52 800.064 C 1132.17 803.311 1126.35 808.996 1132.9 816.643 L 1133.45 817.285 C 1134.81 827.097 1124.95 823.701 1122.38 832.453 C 1119.11 833.34 1116 833.742 1114.12 836.533 L 1113.64 838.329 C 1112.9 839.119 1110.67 841.598 1109.95 842.108 C 1104.48 834.994 1106.9 824.718 1116.16 822.944 z"/>
<path transform="translate(0,0)" fill="rgb(189,189,189)" d="M 1124.29 814.326 C 1128.25 816.321 1127.32 821.288 1127.77 825.6 L 1126.03 825.566 C 1123.97 823.267 1124.06 817.333 1124.29 814.326 z"/>
<path transform="translate(0,0)" fill="rgb(160,161,161)" d="M 1139.82 550.352 L 1141.49 547.714 C 1148.76 548.512 1163.52 567.995 1166.63 574.816 C 1167.79 577.365 1168.7 580.865 1170.1 583.214 C 1161.69 581.557 1161.25 574.503 1153.95 569.816 L 1150.68 571.255 L 1144.68 567.078 C 1145.31 558.913 1144.2 557.555 1139.82 550.352 z"/>
<path transform="translate(0,0)" fill="rgb(189,189,189)" d="M 1115.01 818.275 L 1116.16 822.944 C 1106.9 824.718 1104.48 834.994 1109.95 842.108 C 1102.55 845.941 1106.08 845.721 1097.59 843.167 C 1094.66 838.642 1096.34 839.844 1090.98 838.562 L 1089.47 835.755 C 1093.84 829.93 1093.86 829.182 1101.13 828.828 C 1104.5 826.343 1107.85 823.839 1111.19 821.315 L 1115.01 818.275 z"/>
<path transform="translate(0,0)" fill="rgb(160,161,161)" d="M 1157.12 750.286 C 1154.16 748.938 1153.53 748.653 1151.04 746.587 L 1150.92 744.678 L 1155.95 742.499 C 1158.29 737.338 1158.89 735.909 1164.36 733.99 C 1162.45 728.917 1162.06 725.05 1167.02 722.305 C 1173.35 732.74 1171.71 749.486 1157.12 750.286 z"/>
<path transform="translate(0,0)" fill="rgb(207,208,208)" d="M 1046.87 842.661 L 1048.35 842.401 L 1048.79 838.548 C 1050.67 836.67 1051.15 836.696 1053.78 835.869 C 1061.42 837.729 1060.22 834.581 1065.56 829.331 C 1075.17 834.78 1073.84 825.754 1081.94 828.172 C 1081.71 832.35 1078.12 833.06 1078.15 836.657 C 1081.68 835.567 1082.13 835.473 1085.87 835.892 C 1082.51 837.638 1079.72 839.059 1076.24 840.552 C 1065.96 844.502 1063.31 838.024 1053.4 839.144 C 1048.41 839.708 1051.71 844.406 1046.87 842.661 z"/>
<path transform="translate(0,0)" fill="rgb(160,161,161)" d="M 1138.77 769.771 C 1138.58 765.133 1141.73 759.802 1140.69 756.687 C 1138.76 757.326 1138.89 757.987 1137.41 760.147 C 1137.65 758.04 1137.76 756.682 1137.79 754.565 C 1140.57 752.012 1144.67 749.628 1145.44 746.98 C 1143.57 746.73 1143.58 747.342 1141.46 748.862 L 1141.1 747.501 C 1143.35 745.076 1144.16 744.536 1146.8 742.686 L 1148.18 743.24 C 1148.33 746.498 1148.25 749.293 1149.49 752.333 L 1152.88 754.857 C 1153.82 761.853 1146.29 765.204 1143.79 768.69 L 1138.77 769.771 z"/>
<path transform="translate(0,0)" fill="rgb(207,208,208)" d="M 1028.63 856.773 L 1028.59 856.748 C 1032.33 858.513 1035.43 860.26 1038.96 857.557 C 1040.11 852.523 1037.64 852.514 1038.23 849.089 L 1040.22 848.511 L 1039.63 850.931 C 1045.42 860.38 1039.34 855.575 1038.91 863.966 L 1038.3 866.894 C 1034.58 867.503 1037.55 865.432 1033.24 863.859 L 1031.99 866.766 L 1028.53 867.557 C 1028.58 865.088 1028.58 865.009 1027.51 862.825 L 1025.49 862.555 C 1022.7 864.245 1023.43 864.297 1022.37 868.192 L 1020.63 868.498 C 1015.44 866.417 1016.95 864.556 1011.84 862.877 C 1012.96 860.574 1011.75 859.879 1013.82 857.349 L 1014.09 857.992 L 1015.4 857.278 C 1020.44 857.845 1023.67 857.329 1028.63 856.773 z"/>
<path transform="translate(0,0)" fill="rgb(189,190,189)" d="M 1133.45 817.285 C 1132.11 813.055 1131.11 790.206 1133.44 787.614 L 1136.91 790.388 C 1138.92 789.651 1142.07 782.471 1142.79 780.173 L 1144.22 779.538 C 1146.45 783.139 1140.34 785.905 1141.49 790.706 C 1142.19 793.654 1141.29 796.265 1140.59 799.324 L 1136.45 799.634 C 1136.08 805.081 1145.29 815.239 1133.45 817.285 z"/>
<path transform="translate(0,0)" fill="rgb(207,208,208)" d="M 1120.8 632.912 L 1125.39 632.532 L 1126.96 633.986 C 1127.03 639.132 1121.85 644.173 1122.64 648.507 C 1123.41 652.757 1132.09 660.411 1131.88 663.92 L 1131.51 664.223 C 1127.13 667.921 1126.81 669.151 1125.61 674.792 L 1123.68 676.078 C 1124.02 672.81 1125.56 661.142 1123.18 658.617 C 1121.16 656.475 1120.73 659.027 1119.03 654.012 L 1120.69 652.39 C 1118.64 646.224 1120.34 639.876 1120.8 632.912 z"/>
<path transform="translate(0,0)" fill="rgb(189,189,189)" d="M 1116.32 595.616 C 1119.4 595.61 1121.71 595.248 1124.27 596.796 C 1124.45 599.032 1124.83 598.237 1123.86 599.67 C 1123.7 604.866 1123.5 610.061 1123.26 615.254 C 1127.2 618.737 1128.81 625.281 1125.32 629.592 C 1124.01 629.64 1122.41 629.747 1121.13 629.721 C 1121.79 625.171 1120.34 620.94 1119.1 616.583 C 1117.51 613.602 1118.02 614.269 1118.28 610.454 C 1117.86 605.95 1116.88 600.331 1116.32 595.616 z"/>
<path transform="translate(0,0)" fill="rgb(183,184,184)" d="M 1116.32 595.616 C 1119.4 595.61 1121.71 595.248 1124.27 596.796 C 1124.45 599.032 1124.83 598.237 1123.86 599.67 C 1122.16 605.518 1122.37 606.08 1118.28 610.454 C 1117.86 605.95 1116.88 600.331 1116.32 595.616 z"/>
<path transform="translate(0,0)" fill="rgb(183,184,184)" d="M 1165 763.507 C 1167.39 764.607 1168.44 765.324 1170.62 766.808 C 1174.49 766.8 1172.98 767.193 1176.35 765.354 C 1178.56 761.243 1182.01 756.208 1186.16 753.889 L 1188.25 756.182 L 1187.69 756.931 C 1189.84 768.607 1181.41 767.404 1177.43 771.419 L 1176.74 769.64 C 1173.87 767.658 1165.87 770.897 1159.96 770.23 L 1160.35 768.474 L 1161.73 770.507 L 1159.87 769.509 L 1161.94 770.343 L 1161.23 767.325 C 1162.05 766.162 1163.88 764.555 1165 763.507 z"/>
<path transform="translate(0,0)" fill="rgb(189,189,189)" d="M 1150.68 571.255 L 1153.95 569.816 C 1161.25 574.503 1161.69 581.557 1170.1 583.214 C 1173.23 588.321 1175.44 594.644 1177.65 600.267 C 1166.7 598.763 1166.04 583.589 1158.44 578.115 C 1155.1 575.702 1152.94 574.961 1150.68 571.255 z"/>
<path transform="translate(0,0)" fill="rgb(189,189,189)" d="M 1121.59 770.854 C 1114.04 768.077 1116.3 763.733 1111.3 761.769 L 1112.29 760.551 C 1113.74 760.128 1115.12 759.575 1116.53 759.041 C 1119.8 754.812 1117.35 753.309 1119.47 747.479 C 1126.02 742.813 1127.03 731.893 1130.59 729.371 C 1130.89 732.653 1127.61 735.815 1126.37 740.559 C 1127.83 742.798 1127.79 743.051 1128.3 745.735 C 1125.77 759.959 1119.32 754.132 1116.75 761.499 C 1117.85 766.065 1118.28 767.549 1121.59 770.854 z"/>
<path transform="translate(0,0)" fill="rgb(207,208,208)" d="M 1109.43 796.6 C 1109.4 796.08 1109.8 794.083 1109.91 793.439 C 1112.16 790.98 1111.69 791.726 1115.9 791.286 C 1120 788.099 1115.14 787.292 1119.89 780.295 C 1120.36 785.875 1121.82 793.524 1118.85 797.984 C 1117.22 800.426 1116.05 801.952 1115.57 804.758 L 1114.8 805.437 L 1112.01 802.34 C 1112.54 799.978 1112.61 799.879 1111.87 797.64 L 1109.43 796.6 z"/>
<path transform="translate(0,0)" fill="rgb(207,208,208)" d="M 1050.48 697.621 L 1052.6 696.888 C 1053 698.463 1053.24 699.997 1053.51 701.597 L 1055.08 702.107 C 1057.29 700.835 1057.75 700.614 1059.59 698.887 C 1059.31 700.245 1058.95 701.587 1058.52 702.906 C 1056.62 708.681 1050.81 712.473 1044.8 709.846 C 1045.15 707.104 1048.5 706.651 1051.31 702.215 C 1051.77 698.894 1052.1 700.044 1050.48 697.621 z"/>
<path transform="translate(0,0)" fill="rgb(207,208,208)" d="M 1101.13 828.828 C 1100.72 823.168 1102.87 818.977 1105.59 814.07 C 1107.54 816.452 1109.53 818.721 1111.19 821.315 C 1107.85 823.839 1104.5 826.343 1101.13 828.828 z"/>
<path transform="translate(0,0)" fill="rgb(207,208,208)" d="M 865.411 628.733 C 868.156 632.216 867.823 630.774 867.475 634.252 C 864.192 638.096 861.531 638.727 859.218 641.262 L 857.594 640.064 C 859.681 634.657 861.413 632.804 865.411 628.733 z"/>
<path transform="translate(0,0)" fill="rgb(189,189,189)" d="M 1109.43 796.6 L 1111.87 797.64 C 1112.61 799.879 1112.54 799.978 1112.01 802.34 C 1109.12 803.692 1108.27 804.246 1105.03 804.324 C 1105.19 801.435 1107.35 799.797 1109.43 796.6 z"/>
<path transform="translate(0,0)" fill="rgb(207,208,208)" d="M 1168.58 611.478 C 1171.07 611.878 1172.33 612.069 1173.34 614.242 L 1171.05 618.25 C 1172.57 619.181 1174.57 618.863 1176.61 618.891 L 1177.03 620.075 C 1174 620.392 1172.06 620.269 1169.62 622.031 C 1170.32 628.642 1169.97 629.916 1169.31 636.256 L 1168.41 635.352 C 1167.94 631.025 1167.3 629.328 1165.91 625.182 C 1162.75 622.975 1161.44 622.32 1159.39 619.038 C 1158.93 616.422 1158.53 615.63 1159.45 613.269 L 1162.12 613.967 L 1162.66 614.927 C 1164.94 612.901 1165.81 612.681 1168.58 611.478 z"/>
<path transform="translate(0,0)" fill="url(#Gradient4)" d="M 953.116 447.666 C 957.947 443.728 991.264 420.622 996.076 421.843 C 1010.67 425.548 1026.11 454.454 1020.24 469.677 C 1021.01 473.901 1019.65 476.15 1017.98 480.134 C 1017.03 483.515 1017.74 482.901 1015.47 484.823 C 1015.85 487.567 1016.42 489.425 1014.44 491.987 C 1005.98 502.936 977.776 525.73 963.976 525.65 C 961.705 527.961 958.39 528.079 955.137 528.601 C 938.915 535.866 934.442 546.209 921.336 557.536 L 921.062 558.308 C 919.412 561.924 915.951 570.364 913.579 572.954 C 912.248 575.607 901.428 607.629 902.727 605.844 C 899.667 605.509 894.397 607.436 888.73 604.816 C 886.11 606.336 885.784 606.696 882.864 607.098 C 880.618 604.396 873.561 603.711 870.106 605.027 L 867.562 605.912 L 865.044 603.551 C 865.727 600.967 866.548 598.334 867.25 595.712 L 865.78 594.995 C 864.407 594.655 865.076 594.938 863.967 593.555 C 864.334 589.283 866.577 585.565 868.529 581.729 C 868.914 578.907 868.694 578.141 868.191 575.317 L 866.4 574.657 C 865.012 575.924 862.716 579.552 861.53 581.277 L 861.052 581.063 L 860.643 579.522 C 861.759 574.841 863.816 573.143 867.613 570.333 C 869.363 564.283 871.933 559.34 875.665 554.28 C 879.069 551.536 879.682 543.168 876.837 539.565 C 875.543 537.953 874.229 536.357 872.897 534.777 C 874.032 533.064 875.433 531.087 876.45 529.351 C 881.799 520.213 892.262 513.114 897.657 504.027 C 897.504 502.508 899.419 499.675 900.306 498.007 C 899.585 494.844 898.787 491.977 898.646 488.735 C 906.826 483.522 901.302 478.513 912.014 474.26 C 910.22 474.973 926.59 465.758 924.218 467.685 C 931.935 459.747 943.435 453.093 953.116 447.666 z"/>
<path transform="translate(0,0)" fill="url(#Gradient3)" d="M 873.079 581.588 C 875.798 577.838 881.375 567.7 884.443 565.477 C 892.474 573.33 886.398 564.962 897.838 568.273 L 897.565 569.481 L 897.914 569.731 C 904.568 572.15 911.234 571.248 913.579 572.954 C 912.248 575.607 901.428 607.629 902.727 605.844 C 899.667 605.509 894.397 607.436 888.73 604.816 C 886.11 606.336 885.784 606.696 882.864 607.098 C 880.618 604.396 873.561 603.711 870.106 605.027 C 871.63 600.517 872.042 599.588 872.031 594.878 L 869.787 594.537 L 869.16 593.106 C 869.165 589.199 871.406 585.211 873.079 581.588 z"/>
<path transform="translate(0,0)" fill="rgb(112,113,113)" d="M 872.031 594.878 C 875.403 595.152 875.819 595.538 878.584 597.55 C 882.282 595.118 890.479 588.258 894.223 588.846 L 895.378 590.192 C 894.924 595.356 894.011 596.64 894.773 601.871 C 893.032 602.554 889.466 603.543 888.73 604.816 C 886.11 606.336 885.784 606.696 882.864 607.098 C 880.618 604.396 873.561 603.711 870.106 605.027 C 871.63 600.517 872.042 599.588 872.031 594.878 z"/>
<path transform="translate(0,0)" fill="rgb(189,189,189)" d="M 1005.16 489.912 L 1006.51 490.569 C 1009.56 490.423 1012.23 487.215 1015.47 484.823 C 1015.85 487.567 1016.42 489.425 1014.44 491.987 C 1005.98 502.936 977.776 525.73 963.976 525.65 L 963.139 524.952 C 961.108 525.327 950.311 524.543 946.948 524.518 C 946.652 521.923 947.644 522.311 946.497 518.526 C 943.655 517.322 940.932 520.482 934.98 519.218 C 942.481 517.681 952.071 511.066 959.389 508.367 C 960.121 508.097 961.841 510.777 966.883 510.301 C 968.871 508.054 969.644 506.869 972.513 505.772 C 974.772 507.176 974.702 508.521 975.919 511.438 L 972.785 512.559 C 975.14 513.459 973.94 513.353 976.516 512.708 C 976.97 510.696 977.135 509.46 977.371 507.408 C 981.123 506.026 987.691 509.63 990.008 508.042 C 996.618 503.512 997.568 491.991 1005.16 489.912 z"/>
<path transform="translate(0,0)" fill="rgb(160,161,161)" d="M 887.716 544.504 L 890.991 542.331 L 892.633 542.691 C 894.303 545.312 895.231 549.663 893.535 552.454 L 889.948 552.789 C 888.805 559.125 894.458 564.432 897.838 568.273 C 886.398 564.962 892.474 573.33 884.443 565.477 C 881.375 567.7 875.798 577.838 873.079 581.588 C 871.406 585.211 869.165 589.199 869.16 593.106 L 869.787 594.537 L 872.031 594.878 C 872.042 599.588 871.63 600.517 870.106 605.027 L 867.562 605.912 L 865.044 603.551 C 865.727 600.967 866.548 598.334 867.25 595.712 L 865.78 594.995 C 864.407 594.655 865.076 594.938 863.967 593.555 C 864.334 589.283 866.577 585.565 868.529 581.729 C 868.914 578.907 868.694 578.141 868.191 575.317 L 866.4 574.657 C 865.012 575.924 862.716 579.552 861.53 581.277 L 861.052 581.063 L 860.643 579.522 C 861.759 574.841 863.816 573.143 867.613 570.333 C 870.56 569.528 871.26 568.633 873.463 566.573 C 875.862 557.053 880.792 551.118 887.716 544.504 z"/>
<path transform="translate(0,0)" fill="rgb(51,51,51)" d="M 887.716 544.504 C 886.713 553.36 870.219 571.179 870.876 579.255 L 873.079 581.588 C 871.406 585.211 869.165 589.199 869.16 593.106 L 869.787 594.537 L 872.031 594.878 C 872.042 599.588 871.63 600.517 870.106 605.027 L 867.562 605.912 L 865.044 603.551 C 865.727 600.967 866.548 598.334 867.25 595.712 L 865.78 594.995 C 864.407 594.655 865.076 594.938 863.967 593.555 C 864.334 589.283 866.577 585.565 868.529 581.729 C 868.914 578.907 868.694 578.141 868.191 575.317 L 866.4 574.657 C 865.012 575.924 862.716 579.552 861.53 581.277 L 861.052 581.063 L 860.643 579.522 C 861.759 574.841 863.816 573.143 867.613 570.333 C 870.56 569.528 871.26 568.633 873.463 566.573 C 875.862 557.053 880.792 551.118 887.716 544.504 z"/>
<path transform="translate(0,0)" fill="rgb(112,113,113)" d="M 868.529 581.729 C 868.426 586.264 866.721 590.576 865.78 594.995 C 864.407 594.655 865.076 594.938 863.967 593.555 C 864.334 589.283 866.577 585.565 868.529 581.729 z"/>
<path transform="translate(0,0)" fill="rgb(189,189,189)" d="M 953.116 447.666 C 957.947 443.728 991.264 420.622 996.076 421.843 C 1010.67 425.548 1026.11 454.454 1020.24 469.677 L 1018.58 469.2 C 1018.99 466.412 1019.64 464.265 1018.69 461.697 L 1015.84 460.541 L 1013.64 463.963 L 1012.94 463.519 C 1012.55 457.684 1015.32 452.27 1016.32 445.914 C 1015.52 441.657 1012.08 438.404 1009.26 435.308 C 999.415 424.494 988.822 430.449 980.052 439.938 C 970.129 441.499 959.064 447.754 953.116 447.666 z"/>
<path transform="translate(0,0)" fill="rgb(183,184,184)" d="M 934.98 519.218 C 940.932 520.482 943.655 517.322 946.497 518.526 C 947.644 522.311 946.652 521.923 946.948 524.518 C 950.311 524.543 961.108 525.327 963.139 524.952 L 963.976 525.65 C 961.705 527.961 958.39 528.079 955.137 528.601 C 950.522 527.356 947.486 528.319 942.801 529.426 L 942.484 531.473 C 938.714 534.454 938.032 535.142 933.678 533.782 C 931.211 531.191 931.203 530.011 930.7 526.482 L 930.55 525.387 L 929.103 525.4 C 927.471 527.614 919.877 531.715 917.511 531.335 C 920.361 528.672 931.58 520.608 934.98 519.218 z"/>
<path transform="translate(0,0)" fill="rgb(183,184,184)" d="M 924.218 467.685 L 931.159 470.173 C 920.236 477.047 916.419 485.797 906.334 489.276 C 906.166 489.38 905.999 489.483 905.831 489.587 L 905.189 490.575 L 902.681 488.423 C 899.488 493.679 903.235 492.61 900.306 498.007 C 899.585 494.844 898.787 491.977 898.646 488.735 C 906.826 483.522 901.302 478.513 912.014 474.26 C 910.22 474.973 926.59 465.758 924.218 467.685 z"/>
<path transform="translate(0,0)" fill="rgb(160,161,161)" d="M 942.484 531.473 L 942.801 529.426 C 947.486 528.319 950.522 527.356 955.137 528.601 C 938.915 535.866 934.442 546.209 921.336 557.536 L 920.803 555.344 C 922.336 553.158 926.596 549.992 928.997 547.588 C 929.429 543.087 926.122 545.187 924.7 539.545 C 930.073 534.252 932.376 539.956 938.316 537.897 C 940.901 535.313 941.198 534.962 942.484 531.473 z"/>
<path transform="translate(0,0)" fill="rgb(189,189,189)" d="M 931.159 470.173 L 930.776 472.902 C 927.793 474.982 923.144 477.146 922.069 479.974 C 923.399 482.509 924.158 482.201 927.215 483.616 C 925.294 484.14 924.727 483.851 922.817 483.408 C 919.158 485.85 906.439 502.473 905.73 504.949 C 903.991 497.443 909.844 499.654 910.405 493.656 C 908.675 491.262 908.44 490.942 905.831 489.587 C 905.999 489.483 906.166 489.38 906.334 489.276 C 916.419 485.797 920.236 477.047 931.159 470.173 z"/>
<path transform="translate(0,0)" fill="rgb(207,208,208)" d="M 1009.77 479.24 L 1009.93 480.104 C 1015.05 478.887 1013.74 478.406 1017.98 480.134 C 1017.03 483.515 1017.74 482.901 1015.47 484.823 C 1012.23 487.215 1009.56 490.423 1006.51 490.569 L 1005.16 489.912 L 1001.98 488.782 C 999.593 483.402 1005.27 480.978 1009.77 479.24 z"/>
<path transform="translate(0,0)" fill="rgb(189,190,189)" d="M 1009.77 479.24 C 1010.48 477.787 1011.57 472.794 1012.01 470.908 C 1014.94 468.697 1014.3 469.37 1018.58 469.2 L 1020.24 469.677 C 1021.01 473.901 1019.65 476.15 1017.98 480.134 C 1013.74 478.406 1015.05 478.887 1009.93 480.104 L 1009.77 479.24 z"/>
<path transform="translate(0,0)" fill="rgb(160,161,161)" d="M 897.914 569.731 L 901.045 569.169 C 903.515 570.156 904.892 571.079 907.353 570.323 C 909.529 561.35 909.758 567.861 915.137 565.868 C 916.866 561.845 917.192 560.52 921.062 558.308 C 919.412 561.924 915.951 570.364 913.579 572.954 C 911.234 571.248 904.568 572.15 897.914 569.731 z"/>
<path transform="translate(0,0)" fill="rgb(189,189,189)" d="M 909.816 524.039 L 910.993 523.58 C 908.247 529.956 911.736 528.779 910.499 533.832 L 908.759 533.057 L 910.332 533.4 L 909.798 532.358 L 907.354 532.135 C 907.24 530.845 907.141 531.202 906.248 529.861 L 904.701 528.514 L 902.87 530.078 C 900.556 528.761 901.417 529.66 900.206 527.28 C 903.88 526.467 904.936 525.043 909.816 524.039 z"/>
<path transform="translate(0,0)" fill="rgb(160,161,161)" d="M 903.772 554.855 L 904.95 557.124 C 903.582 560.687 900.335 562.746 896.713 563.483 C 895.519 562.547 894.841 561.482 893.931 560.271 C 894.677 558.363 899.922 558.657 903.772 554.855 z"/>
<path transform="translate(0,0)" fill="rgb(112,113,113)" d="M 808.631 743.23 C 805.801 741.357 804.296 742.234 802.21 741.071 C 788.729 733.553 773.741 728.845 767.826 713.677 C 770.007 714.05 770.147 714.143 772.215 713.523 C 770.631 696.696 765.312 680.074 765.63 662.854 C 765.69 659.599 765.791 655.653 765.461 652.465 L 764.007 653.022 C 762.549 656.972 762.081 659.914 761.294 664.053 L 759.891 664.917 L 758.055 661.879 L 756.584 662.144 L 753.565 667.368 L 752.464 666.589 C 752.847 658.797 769.423 622.182 774.446 620.633 L 776.711 623.75 L 776.387 624.563 C 778.711 626.231 779.035 626.317 780.454 628.714 C 781.919 628.82 783.384 628.937 784.847 629.065 C 786.907 627.47 786.269 627.499 788.523 627.211 C 791.865 629.22 790.854 631.859 790.168 635.266 C 788.09 638.546 789.466 641.815 788.477 646.29 L 788.053 649.468 C 788.081 650.658 788.247 654.15 788.082 655.119 C 790.442 661.065 795.921 666.522 800.025 671.661 C 800.386 674.185 800.544 674.79 800.283 677.294 C 795.591 671.626 792.953 672.224 785.517 673.008 C 782.065 673.613 781.004 673.084 777.948 671.796 C 774.929 673.864 775.842 672.732 774.437 676.038 C 774.438 682.002 777.004 687.001 782.151 690.032 C 784.115 693.075 784.315 691.098 784.688 692.82 C 786.006 698.912 793.548 707.757 793.974 713.401 C 795.238 714.162 796.084 714.848 797.543 714.982 C 799.558 726.849 803.466 725.077 804.317 731.028 L 805.748 732.053 C 807.278 736.567 807.469 739.435 808.631 743.23 z"/>
<path transform="translate(0,0)" fill="rgb(139,139,139)" d="M 776.387 624.563 C 778.711 626.231 779.035 626.317 780.454 628.714 C 781.919 628.82 783.384 628.937 784.847 629.065 C 786.907 627.47 786.269 627.499 788.523 627.211 C 791.865 629.22 790.854 631.859 790.168 635.266 C 788.09 638.546 789.466 641.815 788.477 646.29 L 788.053 649.468 C 783.014 645.138 781.243 649.084 776.742 645.799 C 776.064 642.501 776.455 643.096 777.817 639.483 C 777.253 636.463 777.597 637.505 774.275 635.131 C 773.365 629.17 777.494 634.369 776.387 624.563 z"/>
<path transform="translate(0,0)" fill="rgb(112,113,113)" d="M 784.847 629.065 C 786.907 627.47 786.269 627.499 788.523 627.211 C 791.865 629.22 790.854 631.859 790.168 635.266 C 788.09 638.546 789.466 641.815 788.477 646.29 C 787.148 645.563 786.407 644.82 785.284 643.834 C 783.815 637.502 783.755 635.494 784.847 629.065 z"/>
<path transform="translate(0,0)" fill="rgb(189,189,189)" d="M 785.517 673.008 C 785.717 665.947 781.947 659.395 788.082 655.119 C 790.442 661.065 795.921 666.522 800.025 671.661 C 800.386 674.185 800.544 674.79 800.283 677.294 C 795.591 671.626 792.953 672.224 785.517 673.008 z"/>
<path transform="translate(0,0)" fill="url(#Gradient2)" d="M 962.253 589.934 C 980.355 589.434 981.966 608.13 974.623 620.582 C 971.743 625.465 968.54 625.578 963.229 626.744 C 938.864 622.294 947.655 601.181 962.253 589.934 z"/>
<path transform="translate(0,0)" fill="rgb(207,208,208)" d="M 1059.36 590.301 C 1076.54 588.362 1084.12 612.278 1077.17 625.43 L 1075.11 625.322 L 1071.87 624.134 C 1058.7 627.593 1049.06 607.775 1052.67 596.993 C 1054.04 592.925 1055.78 591.913 1059.36 590.301 z"/>
<path transform="translate(0,0)" fill="rgb(51,51,51)" d="M 786.867 587.316 C 792.872 583.082 789.637 581.924 797.541 583.922 C 798.421 586.002 800.493 589.909 800.289 591.759 C 806.404 602.345 800.519 610.405 803.641 616.183 C 805.516 616.574 805.992 616.432 807.46 617.496 L 806.483 619.229 C 805.079 619.058 803.808 618.522 802.392 618.423 C 799.519 613.467 801.618 610.281 798.884 607.919 C 791.538 615.12 796.256 626.999 790.168 635.266 C 790.854 631.859 791.865 629.22 788.523 627.211 C 786.269 627.499 786.907 627.47 784.847 629.065 C 783.384 628.937 781.919 628.82 780.454 628.714 C 779.035 626.317 778.711 626.231 776.387 624.563 L 776.711 623.75 C 779.432 620.969 780.639 617.189 781.898 613.612 C 782.098 612.036 782.518 611.378 783.128 609.901 C 784.95 604.666 787.181 602.457 785.596 598.531 C 786.446 594.321 786.384 591.483 786.867 587.316 z"/>
<path transform="translate(0,0)" fill="rgb(112,113,113)" d="M 786.867 587.316 C 792.872 583.082 789.637 581.924 797.541 583.922 C 798.421 586.002 800.493 589.909 800.289 591.759 C 799.578 596.718 798.388 601.236 794.071 604.348 L 793.309 603.626 C 793.632 598.367 795.23 601.25 795.353 598.163 C 794.486 595.584 795.089 596.497 792.519 594.824 C 789.627 594.995 787.997 596.709 785.596 598.531 C 786.446 594.321 786.384 591.483 786.867 587.316 z"/>
<path transform="translate(0,0)" fill="rgb(112,113,113)" d="M 785.596 598.531 C 787.997 596.709 789.627 594.995 792.519 594.824 C 795.089 596.497 794.486 595.584 795.353 598.163 C 789.265 603.191 794.574 606.463 790.664 611.073 C 787.473 611.453 786.124 610.833 783.128 609.901 C 784.95 604.666 787.181 602.457 785.596 598.531 z"/>
<path transform="translate(0,0)" fill="rgb(112,113,113)" d="M 776.711 623.75 C 779.432 620.969 780.639 617.189 781.898 613.612 C 784.958 619.878 785.894 623.516 780.454 628.714 C 779.035 626.317 778.711 626.231 776.387 624.563 L 776.711 623.75 z"/>
<path transform="translate(0,0)" fill="rgb(160,161,161)" d="M 800.025 671.661 C 802.575 664.914 805.264 661.912 805.753 654.165 C 806.239 646.461 801.89 646.47 801.231 643.102 C 805.969 641.192 806.344 641.095 807.192 636.433 C 805.155 633.615 806.063 637.06 801.746 635.859 L 802.022 633.017 C 804.61 631.761 810.93 628.714 812.036 626.277 L 809.79 622.816 C 809.769 619.766 814.768 613.7 816.461 608.391 L 816.711 607.581 L 817.807 607.109 C 819.534 610.288 819.527 611.016 819.854 614.515 L 818.621 615.251 L 817.513 611.109 C 814.393 613.595 814.865 648.259 815.856 653.255 L 816.022 654.069 C 813.932 654.275 813.481 654.284 811.677 653.19 C 806.739 655.778 804.167 672.101 805.306 676.744 C 804.048 677.529 803.15 678.17 801.74 678.678 L 800.283 677.294 C 800.544 674.79 800.386 674.185 800.025 671.661 z"/>
<path transform="translate(0,0)" fill="rgb(160,161,161)" d="M 875.665 554.28 C 875.712 552.47 875.629 552.571 874.784 550.941 L 873.057 550.919 C 869.55 553.212 868.753 553.776 866.058 557.022 L 865.448 557.763 L 864.711 554.752 L 863.334 554.812 C 858.771 559.692 851.244 566.613 849.917 573.381 C 848.895 578.592 846.936 582.09 841.983 583.599 L 841.19 582.701 C 842.769 570.37 863.882 542.414 872.897 534.777 C 874.229 536.357 875.543 537.953 876.837 539.565 C 879.682 543.168 879.069 551.536 875.665 554.28 z"/>
<path transform="translate(0,0)" fill="rgb(160,161,161)" d="M 851.059 539.882 C 854.074 536.761 870.98 521.313 871.471 519.653 C 869.54 520.23 870.118 520.434 868.555 520.054 C 879.936 511.094 887.235 500.126 897.482 488.469 C 893.647 488.974 892.685 491.006 889.48 494.156 L 888.979 493.102 C 891.005 489.354 895.427 483.587 899.386 482.06 L 900.174 483.31 L 898.646 488.735 C 898.787 491.977 899.585 494.844 900.306 498.007 C 899.419 499.675 897.504 502.508 897.657 504.027 C 890.789 504.193 888.147 509.181 883.508 513.68 C 873.691 523.199 864.088 534.86 851.059 539.882 z"/>
<path transform="translate(0,0)" fill="rgb(189,190,189)" d="M 1115.09 569.747 C 1112.2 562.958 1099.65 551.734 1099.47 545.394 C 1101.32 546.258 1103.19 547.086 1105.08 547.877 L 1102.51 544.266 L 1102.94 542.566 L 1102.25 542.28 L 1101.72 542.935 L 1101.63 542.305 C 1106.83 542.608 1119 553.739 1123.52 557.584 C 1120.07 561.421 1116.09 564.873 1115.09 569.747 z"/>
<path transform="translate(0,0)" fill="url(#Gradient1)" d="M 1204.47 551.138 C 1206.48 536.846 1209.05 532.075 1217.58 521.353 C 1215.75 525.161 1213.01 530.161 1212.38 534.2 L 1213.28 535.236 L 1216.42 533.785 L 1220.54 533.152 C 1220.46 535.524 1216.3 544.729 1215.1 550.061 C 1210.13 549.922 1207.18 551.447 1204.47 551.138 z"/>
<path transform="translate(0,0)" fill="rgb(189,189,189)" d="M 1141.31 567.31 C 1137.88 562.102 1126.67 542.618 1126.63 537.109 L 1128.16 537.095 C 1134.61 541.557 1133.86 544.073 1139.18 549.688 L 1139.82 550.352 C 1144.2 557.555 1145.31 558.913 1144.68 567.078 L 1141.31 567.31 z"/>
<path transform="translate(0,0)" fill="rgb(139,139,139)" d="M 785.591 563.023 C 791.387 570.324 794.108 574.968 797.541 583.922 C 789.637 581.924 792.872 583.082 786.867 587.316 C 785.339 584.819 782.305 573.82 780.362 569.292 C 782.279 567.526 783.979 565.115 785.591 563.023 z"/>
<path transform="translate(0,0)" fill="rgb(223,223,223)" d="M 1068.46 869.399 C 1070.32 870.067 1071.21 871.096 1072.68 872.407 C 1072.16 878.634 1072.17 883.674 1068.85 888.933 C 1054.9 891.295 1064.06 874.355 1068.46 869.399 z"/>
<path transform="translate(0,0)" fill="rgb(160,161,161)" d="M 1179.69 590.912 C 1186.62 601.157 1189.8 606.822 1194.79 618.188 C 1191.42 617.249 1188.06 616.253 1184.72 615.199 L 1184.56 613.69 C 1185.79 608.042 1181.4 597.09 1179.69 590.912 z"/>
<path transform="translate(0,0)" fill="rgb(139,139,139)" d="M 838.613 587.824 L 838.732 590.961 L 840.75 592.265 C 839.461 597.519 832.439 604.266 829.732 612.742 L 828.016 614.234 L 827.064 613.632 C 826.195 608.11 835.456 593.277 838.613 587.824 z"/>
<path transform="translate(0,0)" fill="rgb(112,113,113)" d="M 780.362 569.292 C 778.5 565.733 774.193 558.956 774.433 555.298 L 775.727 554.991 C 779.459 556.03 782.768 560.119 785.591 563.023 C 783.979 565.115 782.279 567.526 780.362 569.292 z"/>
<path transform="translate(0,0)" fill="rgb(51,51,51)" d="M 848.813 591.951 C 850.436 592.725 851.023 593.075 852.542 594.054 C 852.715 599.23 848.986 602.148 845.363 606.197 L 847.264 607.771 L 846.586 609.196 L 845.119 608.883 C 846.17 603.132 847.059 597.539 848.813 591.951 z"/>
<path transform="translate(0,0)" fill="rgb(112,113,113)" d="M 1228.52 518.889 C 1225.83 524.818 1222.18 529.568 1220.54 533.152 L 1216.42 533.785 C 1220.61 528.254 1223.86 524.04 1228.52 518.889 z"/>
<path transform="translate(0,0)" fill="rgb(112,113,113)" d="M 857.417 570.092 L 858.203 570.391 C 858.521 573.812 854.192 581.282 852.18 584.315 C 851.243 583.925 851.46 583.917 850.701 583.072 L 857.417 570.092 z"/>
</svg>