<svg version="1.1" xmlns="http://www.w3.org/2000/svg" style="display: block;" viewBox="0 0 2048 1117" width="1408" height="768" preserveAspectRatio="none">
<defs>
	<linearGradient id="Gradient1" gradientUnits="userSpaceOnUse" x1="950.788" y1="617.305" x2="976.038" y2="599.249">
		<stop class="stop0" offset="0" stop-opacity="1" stop-color="rgb(33,33,34)"/>
		<stop class="stop1" offset="1" stop-opacity="1" stop-color="rgb(63,63,63)"/>
	</linearGradient>
	<linearGradient id="Gradient2" gradientUnits="userSpaceOnUse" x1="967.811" y1="324.492" x2="999.762" y2="334.202">
		<stop class="stop0" offset="0" stop-opacity="1" stop-color="rgb(106,105,105)"/>
		<stop class="stop1" offset="1" stop-opacity="1" stop-color="rgb(129,128,128)"/>
	</linearGradient>
</defs>
<path transform="translate(0,0)" fill="rgb(252,252,251)" d="M 0 0 L 2048 0 L 2048 1117 L 0 1117 L 0 0 z"/>
<path transform="translate(0,0)" fill="rgb(38,37,38)" d="M 869.842 537.299 L 872.418 535.025 C 873.19 535.877 876.933 540.118 877.559 540.547 C 879.48 545.092 879.167 546.189 884.152 548.418 L 887.18 544.783 C 888.132 551.225 879.513 556.931 876.429 566.996 L 874.199 571.15 L 870.264 576.845 C 867.75 580.645 863.788 589.518 863.238 594.016 L 864.268 595.327 L 866.649 595.255 C 867.396 597.744 866.033 600.037 865.095 603.036 L 866.787 606.499 L 870.124 605.132 C 875.24 603.42 876.644 603.999 881.325 605.88 C 885.751 607.658 900.312 606.988 903.53 607.937 C 904.401 609.298 906.016 611.404 906.223 612.836 C 918.437 622.027 919.171 624.867 927.93 637.533 C 927.877 647.644 925.176 643.466 932.375 651.608 C 938.765 658.836 941.074 659.247 949.048 663.873 L 950.54 663.7 C 951.459 665.864 951.538 666.205 951.945 668.531 L 954.021 669.858 L 955.363 672.105 C 967.213 671.575 970.86 675.243 977.823 683.737 C 981.838 682.731 986.657 681.289 990.707 681.3 C 992.972 683.465 993.205 684.174 994.563 687.03 C 1001.63 688.384 1004.5 680.196 1009.24 679.826 C 1014.25 682.195 1024.51 675.699 1025.66 676.779 C 1032.83 683.54 1034.49 675.247 1039.62 677.125 C 1045.4 679.238 1049.69 693.945 1056.53 691.923 C 1065.17 687.543 1066.53 687.48 1075.27 686.163 C 1079.5 680.394 1080.29 685.767 1085.81 681.919 C 1084.85 679.879 1084.81 679.935 1084.57 677.728 C 1090.04 673.398 1089.46 671.518 1094.6 668.732 C 1097.17 661.068 1101.96 665.008 1106.64 650.584 L 1106.29 648.832 C 1110.39 642.416 1112.48 636.896 1115.12 629.837 C 1114.21 625.607 1115.09 626.487 1116.3 621.979 C 1120.1 607.793 1117.34 594.46 1110.55 581.903 L 1109.31 580.864 C 1108.92 574.284 1106.48 575.893 1107.1 570.039 C 1110.37 568.484 1109.65 569.023 1113.86 569.781 L 1114.61 568.558 C 1113.46 565.755 1101.42 551.481 1098.46 545.518 C 1100.19 545.363 1101.94 547.749 1104.83 547.373 L 1100.93 542.226 C 1103.88 541.822 1136.73 565.413 1140.22 568.503 L 1142.63 567.3 C 1149.83 565.905 1162.85 575.821 1168.93 580.162 C 1169.88 582.065 1171.91 585.865 1172.57 587.687 C 1174.58 592.219 1177.38 599.041 1179.56 603.298 C 1180.37 608.269 1180.79 608.834 1183.82 612.902 C 1183.78 614.332 1183.39 616.372 1184.3 617.239 C 1186.52 619.355 1186.6 624.173 1187.84 625.84 C 1191.91 625.585 1190.81 625.096 1193.61 626.771 L 1194.58 631.267 L 1195.58 626.965 C 1198.32 628.48 1198.56 631.09 1201.08 634.337 C 1210.28 640.75 1215.58 668.049 1211.02 677.08 C 1210.64 679.106 1209.27 700.152 1209.47 701.321 C 1206.98 710.312 1207.41 724.44 1207.29 734.145 C 1202.14 736.31 1198.64 736.529 1198.39 742.691 C 1206.32 748.908 1204.53 746.09 1202.14 756.635 C 1200.66 759.844 1198.91 764.608 1198.73 767.907 C 1198.19 777.996 1168.44 820.707 1161.57 822.067 C 1161.12 820.824 1159.75 816.192 1159.36 815.541 C 1155 818.417 1148.7 823.517 1144.02 824.767 C 1142.15 824.045 1142.25 824.149 1141.05 822.541 L 1140.51 823.429 C 1132.46 829.375 1129.86 833.044 1120.23 833.061 C 1116.31 834.296 1115.92 834.617 1113.13 837.575 L 1113.1 839.718 L 1112.35 840.187 C 1108.82 842.426 1108.31 843.383 1106.1 846.922 L 1106.82 847.791 L 1111.84 845.639 L 1112.68 846.992 C 1106.23 850.733 1093 856.905 1085.95 858.942 L 1085.46 858.39 C 1088.14 855.794 1088.9 853.032 1089.02 849.392 L 1087.99 848.326 C 1082.91 848.417 1077.97 853.576 1076.43 853.769 C 1070.36 853.879 1067.81 852.528 1062.2 855.133 C 1059.72 856.282 1035.03 871.252 1035.98 871.451 C 1023.06 868.756 1019.75 877.872 1007.46 878.728 C 999.425 872.968 999.78 880.334 995.17 879.752 C 988.888 878.96 982.024 876.208 974.547 875.985 L 971.795 878.867 C 968.641 878.627 964.48 870.245 961.904 869.95 C 957.165 869.408 948.91 870.501 944.402 868.744 L 942.923 865.046 C 939.453 862.861 937.028 864.451 931.512 863.017 C 926.154 855.938 928.701 860.75 923.18 861.376 C 914.676 857.184 901.39 850.619 893.709 844.727 C 892.963 844.155 893.361 840.844 890.19 838.228 L 887.077 839.874 L 885.78 839.027 C 885.271 836.718 885.276 836.113 884.029 834.162 L 880.497 834.225 C 877.303 831.861 876.681 827.785 873.936 823.825 L 870.997 823.699 C 867.922 818.883 869.783 815.952 869.053 814.864 C 865.667 809.813 851.533 802.073 850.245 797.117 C 847.298 786.449 845.329 792.463 840.703 784.712 C 841.338 783.556 841.439 783.429 842.368 782.555 L 843.129 781.85 C 841.566 778.766 838.859 777.364 835.809 775.684 L 835.324 775.421 C 837.085 767.07 824.617 760.003 824.25 756.164 C 823.648 749.864 811.714 722.265 811.79 719.859 C 810.359 711.408 815.947 706.956 810.239 696.187 C 800.1 687.356 809.721 671.401 807.751 664.287 L 804.978 663.104 C 804.217 656.257 808.686 659.037 806.34 650.916 C 806.496 649.282 806.048 648.795 805.271 647.354 C 804.676 641.574 806.543 635.552 809.613 630.724 C 810.017 630.09 815.472 624.571 816.273 624.241 L 816.409 630.386 C 817.497 631.705 819.396 634.305 820.78 635.055 C 822.536 627.546 823.423 623.889 826.294 616.719 L 826.499 614.799 C 827.397 605.32 833.212 597.021 837.989 588.657 L 840.394 583.691 L 841.625 579.538 L 840.5 575.993 C 838.277 573.182 834.746 571.941 831.438 570.385 C 829.672 558.533 830.671 564.349 836.934 558.125 C 841.394 553.692 840.99 545.26 849.231 542.941 C 853.399 547.235 848.924 547.134 857.106 552.54 C 859.742 550.069 863.776 544.736 866.184 541.744 L 869.842 537.299 z"/>
<path transform="translate(0,0)" fill="rgb(68,68,68)" d="M 1205.14 678.181 C 1208.71 676.198 1207.14 676.457 1211.02 677.08 C 1210.64 679.106 1209.27 700.152 1209.47 701.321 C 1206.98 710.312 1207.41 724.44 1207.29 734.145 C 1202.14 736.31 1198.64 736.529 1198.39 742.691 C 1206.32 748.908 1204.53 746.09 1202.14 756.635 C 1200.66 759.844 1198.91 764.608 1198.73 767.907 C 1198.19 777.996 1168.44 820.707 1161.57 822.067 C 1161.12 820.824 1159.75 816.192 1159.36 815.541 C 1155 818.417 1148.7 823.517 1144.02 824.767 C 1142.15 824.045 1142.25 824.149 1141.05 822.541 L 1140.51 823.429 C 1132.46 829.375 1129.86 833.044 1120.23 833.061 C 1116.31 834.296 1115.92 834.617 1113.13 837.575 L 1110.32 836.573 L 1109.53 834.368 C 1107.83 832.971 1107.93 832.975 1106.89 830.982 L 1108.86 826.699 L 1108.25 823.73 L 1110.17 821.432 L 1109.94 818.999 C 1107.95 816.766 1107.41 815.949 1105.88 813.374 C 1108.04 811.535 1110.35 809.723 1112.57 807.932 C 1118.65 802.846 1115.63 799.434 1122.8 794.317 C 1124.72 792.451 1126.72 783.72 1127.65 780.497 C 1130.17 781.016 1130.57 781.107 1132.91 782.169 L 1135.6 790.872 L 1137 791.501 C 1139.93 789.027 1140.77 784.633 1140.47 780.955 C 1138.8 777.389 1135.34 775.751 1131.95 773.589 C 1135.12 770.576 1135.35 771.366 1138.77 769.488 C 1139.48 766.159 1140.47 763.512 1139.34 760.443 L 1135.6 758.722 C 1134.84 756.165 1134.78 757.161 1135.41 754.682 L 1136.7 757.175 L 1138.24 756.643 C 1139.46 753.834 1139.74 753.282 1141.7 750.906 L 1142.14 750.376 C 1141.53 749.489 1140.88 748.711 1140.11 747.952 C 1141.38 743.593 1143.06 732.453 1143.59 731.368 C 1146.55 731.188 1145.61 731.235 1148.66 733.318 L 1149.5 729.998 L 1150.92 730.352 L 1151.42 732.811 C 1148.9 738.715 1149.03 733.419 1145.5 738.025 L 1145.48 736.934 L 1144.94 737.296 C 1147.97 739.795 1148.22 739.969 1147.63 743.687 C 1151.76 742.324 1150.07 742.298 1154 743.597 C 1156.04 742.085 1155.36 743.018 1156.31 740.845 L 1152.85 739.392 L 1152.07 738.884 L 1151.79 737.392 C 1153.33 736.192 1154.84 734.944 1156.3 733.649 C 1155.9 730.693 1152.96 726.85 1151.68 723.664 C 1152.81 721.106 1154.68 718.82 1156.34 716.537 L 1155.74 714.163 L 1157.28 712.685 C 1157.39 714.436 1157.65 714.11 1159.27 715.776 L 1160.47 715.881 L 1161 717.507 L 1163.2 717.154 C 1163.24 714.533 1163 713.839 1164.45 711.828 L 1168.45 711.3 C 1170.72 710.139 1170.48 708.59 1173.54 707.994 L 1174.83 709.396 C 1173.36 716.969 1174.3 715.813 1174.32 722.014 C 1172.9 722.492 1169.38 723.086 1168.61 723.683 C 1170.39 725.659 1171.21 725.984 1173.53 727.372 C 1175.87 722.505 1184.93 715.333 1189.51 710.136 C 1188.66 707.115 1187.8 705.988 1189.63 703.404 L 1194 702.888 L 1194.49 701.119 C 1193.25 698.068 1192.74 696.717 1192.71 693.295 C 1197.3 692.649 1202.48 693.782 1205.56 690.305 C 1205.74 686.88 1205.25 686.164 1203.79 683.14 L 1205.14 678.181 z"/>
<path transform="translate(0,0)" fill="rgb(77,77,77)" d="M 1127.65 780.497 C 1130.17 781.016 1130.57 781.107 1132.91 782.169 L 1135.6 790.872 L 1137 791.501 C 1139.93 789.027 1140.77 784.633 1140.47 780.955 C 1138.8 777.389 1135.34 775.751 1131.95 773.589 C 1135.12 770.576 1135.35 771.366 1138.77 769.488 C 1139.48 766.159 1140.47 763.512 1139.34 760.443 L 1135.6 758.722 C 1134.84 756.165 1134.78 757.161 1135.41 754.682 L 1136.7 757.175 L 1138.24 756.643 C 1139.46 753.834 1139.74 753.282 1141.7 750.906 L 1142.14 750.376 C 1141.53 749.489 1140.88 748.711 1140.11 747.952 C 1141.38 743.593 1143.06 732.453 1143.59 731.368 C 1146.55 731.188 1145.61 731.235 1148.66 733.318 L 1149.5 729.998 L 1150.92 730.352 L 1151.42 732.811 C 1148.9 738.715 1149.03 733.419 1145.5 738.025 L 1145.48 736.934 L 1144.94 737.296 C 1147.97 739.795 1148.22 739.969 1147.63 743.687 C 1151.76 742.324 1150.07 742.298 1154 743.597 C 1151.28 744.249 1152.42 743.603 1150.47 745.601 L 1151.12 746.911 C 1154.91 749.203 1160.54 750.632 1164.85 749.38 C 1172.92 747.033 1166.07 733.427 1174.01 731.35 L 1172.8 730.818 L 1173.91 731.529 L 1172.76 735.404 C 1174.11 737.393 1174.33 737.798 1175.12 740.071 C 1175.26 740.606 1175.72 742.462 1175.94 742.826 L 1178.08 743.948 C 1177.58 746.308 1177.44 746.948 1178.36 749.195 C 1175.38 755.36 1166.76 757.982 1167.37 764.9 C 1176.62 772.241 1173.09 763.89 1178.48 770.174 C 1177.25 775.254 1170.24 777.584 1166.87 780.628 C 1164.24 782.999 1171.87 784.751 1166.44 789.582 C 1162.1 787.987 1164.98 785.48 1161.79 786.565 C 1161.99 788.963 1162.06 789.245 1162.84 791.533 C 1159.98 795.358 1155.71 793.393 1154.49 796.511 L 1156.38 798.274 L 1154.9 799.405 C 1156.33 800.865 1157.34 800.96 1159.29 801.539 L 1159.28 801.564 L 1157.77 801.022 C 1154.33 805.027 1155.87 800.128 1152.65 805.42 C 1152.27 803.508 1151.93 801.94 1151.44 800.056 L 1150.52 804.314 C 1147.92 805.197 1145.67 804.053 1142.9 803.174 L 1139.47 799.089 C 1136.99 799.367 1138.05 798.852 1136.3 800.945 C 1137.76 807.414 1145.27 806.829 1140.64 811.687 C 1137.82 814.646 1132.07 823.262 1129.72 825.004 L 1128.98 827.101 C 1126.29 828.164 1125.88 828.003 1122.9 827.892 C 1122.31 831.523 1122.93 830.143 1120.23 833.061 C 1116.31 834.296 1115.92 834.617 1113.13 837.575 L 1110.32 836.573 L 1109.53 834.368 C 1107.83 832.971 1107.93 832.975 1106.89 830.982 L 1108.86 826.699 L 1108.25 823.73 L 1110.17 821.432 L 1109.94 818.999 C 1107.95 816.766 1107.41 815.949 1105.88 813.374 C 1108.04 811.535 1110.35 809.723 1112.57 807.932 C 1118.65 802.846 1115.63 799.434 1122.8 794.317 C 1124.72 792.451 1126.72 783.72 1127.65 780.497 z"/>
<path transform="translate(0,0)" fill="rgb(68,68,68)" d="M 1122.9 827.892 C 1127.39 819.314 1118.96 819.529 1128.64 811.632 L 1129.52 812.122 C 1130.76 815.053 1132.42 817.936 1132.06 820.936 C 1130.63 820.564 1129.74 820.413 1128.3 820.176 L 1127.86 821.568 L 1129.72 825.004 L 1128.98 827.101 C 1126.29 828.164 1125.88 828.003 1122.9 827.892 z"/>
<path transform="translate(0,0)" fill="rgb(68,68,68)" d="M 1175.94 742.826 L 1178.08 743.948 C 1177.58 746.308 1177.44 746.948 1178.36 749.195 C 1175.38 755.36 1166.76 757.982 1167.37 764.9 C 1166.1 766.792 1166.91 766.175 1165.02 767.028 C 1159.74 759.091 1172.9 758.129 1175.94 742.826 z"/>
<path transform="translate(0,0)" fill="rgb(68,68,68)" d="M 1108.86 826.699 C 1111.75 825.18 1112.95 824.258 1116.28 824.536 C 1115.95 827.97 1115.03 828.938 1111.44 829.865 C 1110.6 831.602 1110.19 832.563 1109.53 834.368 C 1107.83 832.971 1107.93 832.975 1106.89 830.982 L 1108.86 826.699 z"/>
<path transform="translate(0,0)" fill="rgb(68,68,68)" d="M 1146.18 777.736 L 1147.44 779.497 C 1147.74 782.827 1144.29 787.173 1142.34 790.161 L 1141.72 789.496 C 1141.35 786.017 1144.41 781.291 1146.18 777.736 z"/>
<path transform="translate(0,0)" fill="rgb(201,200,200)" d="M 1141.05 822.541 C 1147.43 812.749 1167.04 799.962 1174.71 788.498 C 1176.34 786.072 1175.55 784.863 1174.74 781.818 C 1181.86 776.462 1187.14 771.681 1193.76 765.661 C 1193.58 764.475 1193.25 763.483 1192.75 762.394 L 1194.93 761.851 C 1195.92 762.899 1196.93 763.93 1197.95 764.944 C 1200.99 760.118 1196.78 762.603 1198.98 757.72 L 1202.14 756.635 C 1200.66 759.844 1198.91 764.608 1198.73 767.907 C 1198.19 777.996 1168.44 820.707 1161.57 822.067 C 1161.12 820.824 1159.75 816.192 1159.36 815.541 C 1155 818.417 1148.7 823.517 1144.02 824.767 C 1142.15 824.045 1142.25 824.149 1141.05 822.541 z"/>
<path transform="translate(0,0)" fill="rgb(68,68,68)" d="M 1181.43 743.156 L 1182.71 738.839 L 1183.81 738.278 C 1184.78 742.096 1186.51 747.954 1185.97 751.903 C 1185.42 755.827 1181.42 758.256 1183.06 760.746 L 1187.3 758.288 L 1187.94 759.505 C 1184.91 767.235 1182.86 765.069 1178.48 770.174 C 1173.09 763.89 1176.62 772.241 1167.37 764.9 C 1166.76 757.982 1175.38 755.36 1178.36 749.195 C 1177.44 746.948 1177.58 746.308 1178.08 743.948 L 1181.43 743.156 z"/>
<path transform="translate(0,0)" fill="rgb(77,77,77)" d="M 1205.14 678.181 C 1208.71 676.198 1207.14 676.457 1211.02 677.08 C 1210.64 679.106 1209.27 700.152 1209.47 701.321 C 1206.36 702.684 1204.38 703.685 1201.31 702.156 L 1199.49 695.623 C 1196.8 693.123 1197.05 693.857 1192.71 693.295 C 1197.3 692.649 1202.48 693.782 1205.56 690.305 C 1205.74 686.88 1205.25 686.164 1203.79 683.14 L 1205.14 678.181 z"/>
<path transform="translate(0,0)" fill="rgb(77,77,77)" d="M 1155.74 714.163 L 1157.28 712.685 C 1157.39 714.436 1157.65 714.11 1159.27 715.776 L 1160.47 715.881 L 1161 717.507 L 1159.24 719.268 C 1163.51 725.656 1158.25 735.01 1152.85 739.392 L 1152.07 738.884 L 1151.79 737.392 C 1153.33 736.192 1154.84 734.944 1156.3 733.649 C 1155.9 730.693 1152.96 726.85 1151.68 723.664 C 1152.81 721.106 1154.68 718.82 1156.34 716.537 L 1155.74 714.163 z"/>
<path transform="translate(0,0)" fill="rgb(100,100,99)" d="M 1165.13 735.21 C 1164.7 731.786 1164.45 729.747 1164.45 726.268 C 1166.42 723.815 1165.36 724.54 1168.61 723.683 C 1169.86 728.447 1171.19 730.745 1168.34 734.953 L 1165.13 735.21 z"/>
<path transform="translate(0,0)" fill="rgb(100,100,99)" d="M 1175.12 740.071 C 1176.14 738.701 1177.2 737.354 1178.29 736.034 L 1179.78 736.017 C 1181.27 739 1181.21 739.9 1181.43 743.156 L 1178.08 743.948 L 1175.94 742.826 C 1175.72 742.462 1175.26 740.606 1175.12 740.071 z"/>
<path transform="translate(0,0)" fill="rgb(77,77,77)" d="M 1183.87 720.92 L 1185.09 722.004 C 1186.09 725.652 1188.28 730.4 1187.3 733.235 L 1185.4 733.281 C 1182.92 729.617 1181.29 729.685 1178.91 725.883 C 1180.1 722.686 1180.5 723.228 1183.87 720.92 z"/>
<path transform="translate(0,0)" fill="rgb(100,100,99)" d="M 1163.6 734.938 L 1164.67 737.043 C 1164.66 740.27 1162.31 742.553 1160.24 745.311 C 1159.33 744.128 1159.04 742.379 1158.64 740.889 C 1159.96 737.252 1160.29 737.822 1163.6 734.938 z"/>
<path transform="translate(0,0)" fill="rgb(100,100,99)" d="M 850.245 797.117 C 851.377 796.82 856.792 795.49 857.382 795.927 C 862.819 799.953 874.927 804.133 879.167 808.685 C 878.28 809.981 877.221 810.306 875.799 811.008 C 874.736 815.529 878.528 821.054 882.531 822.587 C 884.733 821.372 884.906 821.214 886.714 819.442 C 890.464 821.178 890.448 824.288 892.74 826.781 C 894.581 828.784 897.651 824.841 900.938 827.581 C 900.186 830.364 899.588 830.714 897.402 832.661 L 898.43 834.078 C 901.868 833.363 904.392 832.181 906.675 835.906 C 903.098 839.58 899.958 839.667 898.588 843.533 C 899.882 847.286 902.478 848.961 906.086 850.648 C 909.808 847.372 905.574 845.369 911.373 845.437 C 915.123 845.481 916.622 845.876 919.581 848.182 C 920.57 850.605 920.686 851.349 921.107 853.942 L 922.915 855.314 C 934.721 853.008 938.414 844.427 947.325 860.762 L 948.756 860.912 L 948.872 858.383 L 947.575 858 L 947.218 856.454 C 950.764 856.746 952.079 858.485 955.058 861.126 C 960.417 860.095 971.789 857.625 976.617 858.09 C 980.204 861.69 981.332 863.166 986.533 863.427 C 987.069 862.031 987.265 861.369 988.552 860.493 C 992.954 860.701 992.546 863.455 993.464 863.392 C 1002.95 862.736 1001.12 855.207 1010.18 862.695 L 1011.94 860.988 C 1012.36 858.885 1012.29 858.411 1013.87 856.923 L 1015.59 861.359 C 1020.71 861.162 1021.7 861.452 1024.01 857.251 C 1028.21 856.011 1029.9 857.451 1033.9 858.891 C 1036.73 856.98 1037.78 857.242 1041.07 856.631 C 1040.62 853.684 1040.12 852.934 1038.84 850.277 L 1037.52 850.108 C 1036.35 851.804 1036.43 851.898 1034.56 852.943 C 1034.31 850.799 1034.33 850.915 1035.24 848.927 C 1040.6 848.001 1039.72 848.939 1040.67 843.611 C 1041.46 839.183 1041.33 837.535 1045.9 837.541 C 1045.56 839.562 1044.87 841.108 1044.14 843.013 L 1045.45 845.384 L 1046.72 844.446 C 1047.42 843.99 1047.55 843.981 1048.05 843.389 C 1055.02 835.248 1060.87 842.867 1071.68 842.161 C 1073.95 840.726 1075.1 839.646 1077.75 839.679 C 1084.36 837.949 1103.48 828.002 1108.25 823.73 L 1108.86 826.699 L 1106.89 830.982 C 1107.93 832.975 1107.83 832.971 1109.53 834.368 L 1110.32 836.573 L 1113.13 837.575 L 1113.1 839.718 L 1112.35 840.187 C 1108.82 842.426 1108.31 843.383 1106.1 846.922 L 1106.82 847.791 L 1111.84 845.639 L 1112.68 846.992 C 1106.23 850.733 1093 856.905 1085.95 858.942 L 1085.46 858.39 C 1088.14 855.794 1088.9 853.032 1089.02 849.392 L 1087.99 848.326 C 1082.91 848.417 1077.97 853.576 1076.43 853.769 C 1070.36 853.879 1067.81 852.528 1062.2 855.133 C 1059.72 856.282 1035.03 871.252 1035.98 871.451 C 1023.06 868.756 1019.75 877.872 1007.46 878.728 C 999.425 872.968 999.78 880.334 995.17 879.752 C 988.888 878.96 982.024 876.208 974.547 875.985 L 971.795 878.867 C 968.641 878.627 964.48 870.245 961.904 869.95 C 957.165 869.408 948.91 870.501 944.402 868.744 L 942.923 865.046 C 939.453 862.861 937.028 864.451 931.512 863.017 C 926.154 855.938 928.701 860.75 923.18 861.376 C 914.676 857.184 901.39 850.619 893.709 844.727 C 892.963 844.155 893.361 840.844 890.19 838.228 L 887.077 839.874 L 885.78 839.027 C 885.271 836.718 885.276 836.113 884.029 834.162 L 880.497 834.225 C 877.303 831.861 876.681 827.785 873.936 823.825 L 870.997 823.699 C 867.922 818.883 869.783 815.952 869.053 814.864 C 865.667 809.813 851.533 802.073 850.245 797.117 z"/>
<path transform="translate(0,0)" fill="rgb(60,60,60)" d="M 1046.72 844.446 C 1047.42 843.99 1047.55 843.981 1048.05 843.389 C 1055.02 835.248 1060.87 842.867 1071.68 842.161 C 1073.95 840.726 1075.1 839.646 1077.75 839.679 L 1084.76 840.262 C 1085.17 850.042 1054.28 841.625 1049.78 848.195 C 1046.94 852.345 1046.25 856.088 1042.65 858.133 L 1041.93 857.331 C 1043.59 852.859 1039.61 852.83 1041.77 849.208 L 1044.96 848.478 C 1045.25 847.227 1045.48 846.668 1045.45 845.384 L 1046.72 844.446 z"/>
<path transform="translate(0,0)" fill="rgb(68,68,68)" d="M 1010.18 862.695 L 1011.94 860.988 C 1012.36 858.885 1012.29 858.411 1013.87 856.923 L 1015.59 861.359 C 1020.71 861.162 1021.7 861.452 1024.01 857.251 C 1028.21 856.011 1029.9 857.451 1033.9 858.891 L 1038.19 860.224 C 1037.18 864.363 1032.47 865.817 1028.56 867.307 C 1027.38 865.773 1026.7 864.881 1025.33 863.517 L 1023.78 864.604 L 1024.34 867.411 C 1020.32 869.804 1015.87 865.817 1012.82 863.146 L 1011.18 863.892 L 1010.18 862.695 z"/>
<path transform="translate(0,0)" fill="rgb(230,230,229)" d="M 869.842 537.299 L 872.418 535.025 C 873.19 535.877 876.933 540.118 877.559 540.547 C 879.48 545.092 879.167 546.189 884.152 548.418 L 887.18 544.783 C 888.132 551.225 879.513 556.931 876.429 566.996 L 874.199 571.15 L 870.264 576.845 C 867.75 580.645 863.788 589.518 863.238 594.016 L 864.268 595.327 L 866.649 595.255 C 867.396 597.744 866.033 600.037 865.095 603.036 C 860.741 608.904 854.344 613.81 852.206 620.164 C 849.859 627.139 849.396 633.348 841.276 634.843 C 840.415 636.9 839.524 638.835 838.943 640.987 C 837.282 642.401 836.332 642.546 834.226 643.268 L 833.027 642.469 C 832.993 641.373 835.832 626.497 836.169 625.504 C 837.819 622.287 839.695 620.045 839.469 616.928 C 834.733 616.052 838.832 618.887 831.122 617.837 L 829.906 616.345 L 826.294 616.719 L 826.499 614.799 C 827.397 605.32 833.212 597.021 837.989 588.657 L 840.394 583.691 L 841.625 579.538 L 840.5 575.993 C 838.277 573.182 834.746 571.941 831.438 570.385 C 829.672 558.533 830.671 564.349 836.934 558.125 C 841.394 553.692 840.99 545.26 849.231 542.941 C 853.399 547.235 848.924 547.134 857.106 552.54 C 859.742 550.069 863.776 544.736 866.184 541.744 L 869.842 537.299 z"/>
<path transform="translate(0,0)" fill="rgb(100,100,99)" d="M 869.842 537.299 L 872.418 535.025 C 873.19 535.877 876.933 540.118 877.559 540.547 C 879.48 545.092 879.167 546.189 884.152 548.418 L 887.18 544.783 C 888.132 551.225 879.513 556.931 876.429 566.996 L 874.199 571.15 L 871.611 568.835 L 867.656 571.487 L 866.522 572.837 L 864.843 570.777 C 861.042 570.723 862.195 570.698 858.6 572.749 C 856.161 576.775 854.662 580.935 851.61 584.066 C 849.904 579.378 854.956 578.242 850.079 574.493 C 847.812 579 846.104 583.176 840.394 583.691 L 841.625 579.538 L 840.5 575.993 C 838.277 573.182 834.746 571.941 831.438 570.385 C 829.672 558.533 830.671 564.349 836.934 558.125 C 841.394 553.692 840.99 545.26 849.231 542.941 C 853.399 547.235 848.924 547.134 857.106 552.54 C 859.742 550.069 863.776 544.736 866.184 541.744 L 869.842 537.299 z"/>
<path transform="translate(0,0)" fill="rgb(230,230,229)" d="M 841.625 579.538 L 840.5 575.993 C 838.277 573.182 834.746 571.941 831.438 570.385 C 829.672 558.533 830.671 564.349 836.934 558.125 C 841.394 553.692 840.99 545.26 849.231 542.941 C 853.399 547.235 848.924 547.134 857.106 552.54 C 849.758 563.64 847.07 567.548 841.625 579.538 z"/>
<path transform="translate(0,0)" fill="rgb(217,215,216)" d="M 850.079 574.493 L 851.025 573.154 C 851.158 567.994 860.152 555.375 864.956 554.259 L 866.342 556.38 L 865.575 556.906 C 867.961 554.388 871.039 551.039 874.579 550.941 C 877.187 554.786 868.473 564.542 867.656 571.487 L 866.522 572.837 L 864.843 570.777 C 861.042 570.723 862.195 570.698 858.6 572.749 C 856.161 576.775 854.662 580.935 851.61 584.066 C 849.904 579.378 854.956 578.242 850.079 574.493 z"/>
<path transform="translate(0,0)" fill="rgb(217,215,216)" d="M 887.18 544.783 C 888.132 551.225 879.513 556.931 876.429 566.996 L 874.199 571.15 L 871.611 568.835 C 873.141 567.475 874.029 566.325 875.339 564.749 C 873.597 552.428 881.446 555.892 884.152 548.418 L 887.18 544.783 z"/>
<path transform="translate(0,0)" fill="rgb(68,68,68)" d="M 869.842 537.299 L 872.418 535.025 C 873.19 535.877 876.933 540.118 877.559 540.547 C 875.554 542.787 874.352 544.485 871.54 545.659 C 868.025 544.775 868.965 544.894 866.184 541.744 L 869.842 537.299 z"/>
<path transform="translate(0,0)" fill="rgb(100,100,99)" d="M 826.499 614.799 C 827.397 605.32 833.212 597.021 837.989 588.657 L 838.156 589.232 C 838.84 591.522 838.902 591.731 840.151 593.717 C 838.487 597.389 829.278 612.933 826.499 614.799 z"/>
<path transform="translate(0,0)" fill="rgb(201,200,200)" d="M 847.781 592.611 C 850.129 593.188 851.1 593.135 852.499 594.914 C 852.693 599.116 847.652 602.823 846.27 608.061 L 845.447 608.671 L 843.507 607.087 C 844.476 601.616 845.951 597.797 847.781 592.611 z"/>
<path transform="translate(0,0)" fill="rgb(68,68,68)" d="M 954.021 669.858 L 955.363 672.105 C 967.213 671.575 970.86 675.243 977.823 683.737 C 981.838 682.731 986.657 681.289 990.707 681.3 C 992.972 683.465 993.205 684.174 994.563 687.03 C 1001.63 688.384 1004.5 680.196 1009.24 679.826 C 1014.25 682.195 1024.51 675.699 1025.66 676.779 C 1032.83 683.54 1034.49 675.247 1039.62 677.125 C 1045.4 679.238 1049.69 693.945 1056.53 691.923 C 1065.17 687.543 1066.53 687.48 1075.27 686.163 L 1078.62 686.203 C 1079.71 687.704 1080.29 688.478 1081.56 689.826 C 1087.85 694.533 1096.59 695.735 1104.28 695.65 C 1107.84 696.67 1105.98 698.049 1111.75 698.074 L 1112.63 698.07 L 1113.32 699.272 L 1113.96 699.323 L 1114.19 698.683 L 1115.26 699.485 C 1095.75 699.655 1101.25 703.868 1085.88 694.449 C 1082.67 698.601 1074.36 696.114 1069.32 696.975 C 1069.1 697.012 1067.51 694.753 1064.54 694.641 C 1058.35 698.717 1059.35 708.184 1050.49 710.453 C 1047.6 710.105 1046.69 710.183 1044.47 708.358 C 1048.09 703.86 1050.08 699.89 1047.17 694.008 C 1044.01 687.635 1035.46 691.532 1029 689.411 C 1026.99 687.247 1026.65 686.642 1024.08 685.347 C 1022.54 687.974 1021.03 690.511 1018.01 691.101 L 1015.64 687.59 C 1011.64 687.427 1013.9 690.29 1009 691.533 L 1006.67 689.321 L 1004.67 689.372 C 1000.54 693.985 1004.82 694.397 1000.78 699.052 C 995 698.791 995.567 693.705 989.312 693.474 C 988.486 695.64 987.647 697.938 988.082 700.235 C 990.848 700.246 993.331 699.399 996.023 698.685 L 997.048 699.595 L 996.373 702.021 C 993.883 704.424 992.751 702.772 988.214 703.685 L 990.539 707.057 L 989.211 708.074 C 981.781 708.038 953.501 692.914 949.961 687.224 C 954.461 679.646 950.649 679.53 954.021 669.858 z"/>
<path transform="translate(0,0)" fill="rgb(68,68,68)" d="M 1115.12 629.837 C 1116.86 633.514 1117.17 638.429 1118.5 642.985 L 1117.83 646.65 L 1121.16 650.819 C 1119.98 656.463 1118.09 656.076 1123.5 659.585 C 1124.26 665.469 1122.63 669.904 1123.6 674.391 C 1122.21 676.35 1114.69 683.377 1114.1 685.398 C 1111.01 688.378 1106.69 692.25 1104.28 695.65 C 1096.59 695.735 1087.85 694.533 1081.56 689.826 C 1080.29 688.478 1079.71 687.704 1078.62 686.203 L 1075.27 686.163 C 1079.5 680.394 1080.29 685.767 1085.81 681.919 C 1084.85 679.879 1084.81 679.935 1084.57 677.728 C 1090.04 673.398 1089.46 671.518 1094.6 668.732 C 1097.17 661.068 1101.96 665.008 1106.64 650.584 L 1106.29 648.832 C 1110.39 642.416 1112.48 636.896 1115.12 629.837 z"/>
<path transform="translate(0,0)" fill="rgb(68,68,68)" d="M 1115.12 629.837 C 1116.86 633.514 1117.17 638.429 1118.5 642.985 L 1117.83 646.65 C 1119.14 657.406 1117.02 651.926 1116.09 658.066 C 1114.03 664.508 1111.09 662.019 1108.34 667.686 L 1108.21 668.716 L 1107.07 669.318 C 1104.26 671.952 1101.35 675.181 1097.76 676.293 C 1095.34 673.978 1095.26 671.969 1094.6 668.732 C 1097.17 661.068 1101.96 665.008 1106.64 650.584 L 1106.29 648.832 C 1110.39 642.416 1112.48 636.896 1115.12 629.837 z"/>
<path transform="translate(0,0)" fill="rgb(100,100,99)" d="M 1106.64 650.584 C 1108.81 658.666 1109.69 659.358 1108.34 667.686 L 1108.21 668.716 L 1107.07 669.318 C 1104.26 671.952 1101.35 675.181 1097.76 676.293 C 1095.34 673.978 1095.26 671.969 1094.6 668.732 C 1097.17 661.068 1101.96 665.008 1106.64 650.584 z"/>
<path transform="translate(0,0)" fill="rgb(100,100,99)" d="M 1075.27 686.163 C 1079.5 680.394 1080.29 685.767 1085.81 681.919 C 1084.85 679.879 1084.81 679.935 1084.57 677.728 C 1090.04 673.398 1089.46 671.518 1094.6 668.732 C 1095.26 671.969 1095.34 673.978 1097.76 676.293 C 1094.98 681.802 1093.95 685.759 1087.64 687.832 L 1086.78 689.437 L 1081.56 689.826 C 1080.29 688.478 1079.71 687.704 1078.62 686.203 L 1075.27 686.163 z"/>
<path transform="translate(0,0)" fill="rgb(68,68,68)" d="M 1097.76 676.293 C 1101.35 675.181 1104.26 671.952 1107.07 669.318 C 1106.82 672.472 1106.47 677.559 1104.09 679.845 C 1099.88 680.531 1101.09 679.765 1098.58 682.264 C 1097.57 686.088 1097.59 689.455 1095.32 691.86 C 1090.28 692.178 1091.75 692.097 1086.78 689.437 L 1087.64 687.832 C 1093.95 685.759 1094.98 681.802 1097.76 676.293 z"/>
<path transform="translate(0,0)" fill="rgb(77,77,77)" d="M 1116.09 658.066 L 1118.18 659.76 L 1117.9 660.616 C 1116.57 664.837 1116.34 666.961 1114.59 671.505 C 1110.92 671.015 1111.23 669.488 1108.21 668.716 L 1108.34 667.686 C 1111.09 662.019 1114.03 664.508 1116.09 658.066 z"/>
<path transform="translate(0,0)" fill="rgb(230,230,229)" d="M 805.271 647.354 C 804.676 641.574 806.543 635.552 809.613 630.724 C 810.017 630.09 815.472 624.571 816.273 624.241 L 816.409 630.386 C 817.497 631.705 819.396 634.305 820.78 635.055 C 818.222 650.425 817.173 679.898 819.725 695.06 C 820.836 700.597 821.942 705.252 820.792 710.884 C 819.401 718.451 817.671 715.855 811.79 719.859 C 810.359 711.408 815.947 706.956 810.239 696.187 C 800.1 687.356 809.721 671.401 807.751 664.287 L 804.978 663.104 C 804.217 656.257 808.686 659.037 806.34 650.916 C 806.496 649.282 806.048 648.795 805.271 647.354 z"/>
<path transform="translate(0,0)" fill="rgb(77,77,77)" d="M 805.271 647.354 C 804.676 641.574 806.543 635.552 809.613 630.724 C 810.017 630.09 815.472 624.571 816.273 624.241 L 816.409 630.386 C 814.393 637.634 814.366 658.723 810.097 663.166 C 810.014 658.546 811.527 651.624 810.439 649.135 L 809.06 648.884 L 806.34 650.916 C 806.496 649.282 806.048 648.795 805.271 647.354 z"/>
<path transform="translate(0,0)" fill="rgb(166,165,165)" d="M 810.827 639.928 L 811.285 640.019 L 812.16 641.444 C 811.912 644.917 811.88 645.381 809.623 647.995 L 807.719 644.4 C 809.279 642.731 809.417 642.486 810.542 640.451 L 810.827 639.928 z"/>
<path transform="translate(0,0)" fill="rgb(60,60,60)" d="M 810.239 696.187 C 810.428 693.01 809.925 690.527 811.664 688.649 C 815.224 692.839 815.736 709.757 820.792 710.884 C 819.401 718.451 817.671 715.855 811.79 719.859 C 810.359 711.408 815.947 706.956 810.239 696.187 z"/>
<path transform="translate(0,0)" fill="rgb(166,165,165)" d="M 809.926 668.129 C 811.965 670.304 812.117 679.282 812.186 682.45 L 810.818 681.281 C 809.248 677.516 809.934 672.495 809.926 668.129 z"/>
<path transform="translate(0,0)" fill="rgb(60,60,60)" d="M 831.122 617.837 C 838.832 618.887 834.733 616.052 839.469 616.928 C 839.695 620.045 837.819 622.287 836.169 625.504 C 835.832 626.497 832.993 641.373 833.027 642.469 L 834.226 643.268 C 836.332 642.546 837.282 642.401 838.943 640.987 L 840.153 643.488 C 837.364 646.278 832.792 651.222 832.293 655.079 L 833.189 656.888 C 834.928 656.847 837.311 656.726 838.897 657.413 C 838.993 664.004 841.305 661.546 841.298 665.654 C 836.472 664.638 832.754 661.37 828.23 663.922 C 826.355 671.06 824.69 677.507 822.291 684.492 L 821.902 684.267 C 820.167 688.043 820.13 690.938 819.725 695.06 C 817.173 679.898 818.222 650.425 820.78 635.055 C 822.536 627.546 823.423 623.889 826.294 616.719 L 829.906 616.345 L 831.122 617.837 z"/>
<path transform="translate(0,0)" fill="rgb(217,215,216)" d="M 831.122 617.837 C 838.832 618.887 834.733 616.052 839.469 616.928 C 839.695 620.045 837.819 622.287 836.169 625.504 C 830.126 628.776 834.613 638.545 829.424 639.797 C 827.905 633.878 830.132 624.068 831.122 617.837 z"/>
<path transform="translate(0,0)" fill="rgb(217,215,216)" d="M 828.503 645.809 L 829.304 646.815 C 829.902 650.152 828.376 653.153 827.197 656.488 L 826.132 656.108 C 824.69 652.52 826.746 648.887 828.503 645.809 z"/>
<path transform="translate(0,0)" fill="rgb(68,68,68)" d="M 1201.4 691.026 C 1201.98 690.883 1203.14 690.243 1203.74 689.943 L 1204.14 688.092 C 1202.52 685.221 1201.59 684.618 1198.4 683.429 C 1193 681.416 1193.98 679.285 1192.14 677.346 C 1191.14 684.724 1190.63 679.174 1188.19 683.884 L 1191 683.412 L 1191.88 684.575 L 1190.54 685.748 C 1187.43 685.339 1188.28 685.906 1186.36 684.017 C 1187.09 681.909 1187.67 681.68 1189.47 680.159 L 1190.06 679.671 L 1189.81 675.936 C 1190.12 676.005 1202.94 682.581 1203.79 683.14 C 1205.25 686.164 1205.74 686.88 1205.56 690.305 C 1202.48 693.782 1197.3 692.649 1192.71 693.295 C 1192.74 696.717 1193.25 698.068 1194.49 701.119 L 1194 702.888 L 1189.63 703.404 C 1187.8 705.988 1188.66 707.115 1189.51 710.136 C 1184.93 715.333 1175.87 722.505 1173.53 727.372 C 1171.21 725.984 1170.39 725.659 1168.61 723.683 C 1169.38 723.086 1172.9 722.492 1174.32 722.014 C 1174.3 715.813 1173.36 716.969 1174.83 709.396 L 1173.54 707.994 C 1170.48 708.59 1170.72 710.139 1168.45 711.3 L 1164.45 711.828 C 1163 713.839 1163.24 714.533 1163.2 717.154 L 1161 717.507 L 1160.47 715.881 L 1159.27 715.776 C 1157.65 714.11 1157.39 714.436 1157.28 712.685 L 1155.74 714.163 C 1155.12 713.976 1153.87 713.208 1153.24 712.85 L 1152.83 711.178 L 1155.52 710.987 C 1157.74 709.405 1157.44 706.684 1158.06 703.172 C 1160.69 700.312 1169.48 700.191 1174.03 699.703 C 1174.45 696.813 1173.23 700.224 1170.37 696.091 C 1170.29 689.188 1171.09 686.036 1178.19 684.378 C 1180.73 685.454 1180.63 687.765 1182.31 691.434 C 1182.97 691.772 1183.76 692.174 1184.66 692.638 C 1191.94 690.501 1193.75 689.894 1201.4 691.026 z"/>
<path transform="translate(0,0)" fill="rgb(77,77,77)" d="M 1168.45 711.3 C 1169.14 708.538 1169.48 707.17 1170.58 704.559 C 1173.66 702.153 1172.47 702.33 1175.56 702.58 L 1176.66 704.426 C 1176.23 708.014 1176.88 707.389 1174.83 709.396 L 1173.54 707.994 C 1170.48 708.59 1170.72 710.139 1168.45 711.3 z"/>
<path transform="translate(0,0)" fill="rgb(68,68,68)" d="M 930.586 672.783 C 930.148 672.455 929.711 672.127 929.274 671.8 L 928.688 671.333 C 917.382 662.443 927.484 646.647 921.585 636.25 C 917.655 629.324 900.652 623.968 906.223 612.836 C 918.437 622.027 919.171 624.867 927.93 637.533 C 927.877 647.644 925.176 643.466 932.375 651.608 C 938.765 658.836 941.074 659.247 949.048 663.873 L 946.928 666.848 C 939.31 668.031 936.651 671.808 930.586 672.783 z"/>
<path transform="translate(0,0)" fill="rgb(44,43,44)" d="M 1046.72 844.446 C 1050.14 838.161 1050.49 835.817 1058.49 837.223 L 1059.09 837.333 C 1061.19 834.643 1063.34 831.993 1065.54 829.384 L 1068.5 831.929 C 1073.93 831.841 1079.03 824.666 1084.1 829.619 C 1083.39 831.021 1079.8 833.494 1077.89 835.865 L 1079.35 836.512 C 1083.22 833.782 1083.32 834.618 1087.83 834.013 L 1088.72 832.548 L 1087.26 827.986 C 1088.84 821.183 1095.44 826.51 1100.13 822.656 C 1101.11 818.663 1101.63 814.934 1105.88 813.374 C 1107.41 815.949 1107.95 816.766 1109.94 818.999 L 1110.17 821.432 L 1108.25 823.73 C 1103.48 828.002 1084.36 837.949 1077.75 839.679 C 1075.1 839.646 1073.95 840.726 1071.68 842.161 C 1060.87 842.867 1055.02 835.248 1048.05 843.389 C 1047.55 843.981 1047.42 843.99 1046.72 844.446 z"/>
<path transform="translate(0,0)" fill="rgb(60,60,60)" d="M 1106.2 775.464 C 1106.22 773.042 1106.1 772.625 1107.02 770.446 C 1108.32 774.802 1107.43 774.248 1110.5 776.578 C 1114.01 774.477 1114.56 772.406 1114.5 768.701 C 1110.67 763.186 1111.27 763.999 1114.12 758.175 C 1118.18 749.854 1122.43 741.644 1126.67 733.406 L 1126.6 734.275 C 1127.59 730.482 1127.93 726.603 1131.87 725.359 L 1133.24 727.081 C 1132.55 731.876 1132.46 729.468 1128.96 733.975 L 1129.2 735.475 C 1132.81 733.088 1132.91 732.85 1136.31 735.078 C 1133.86 738.556 1128.91 732.257 1128.11 746.005 L 1127.87 746.896 C 1124.55 759.041 1106.58 756.212 1123.61 772.379 L 1124.94 771.98 L 1126.03 768.986 L 1130.75 771.098 L 1130.86 773.731 L 1129.39 774.726 L 1129.3 773.076 C 1127.35 775.941 1127.92 776.633 1127.65 780.497 C 1126.72 783.72 1124.72 792.451 1122.8 794.317 C 1116.79 783.013 1122.18 782.831 1119.65 776.34 C 1119.69 775.112 1119.3 774.573 1118.84 773.37 L 1117.2 772.837 C 1111.93 777.3 1112.22 778.937 1105.89 777.179 L 1106.2 775.464 z"/>
<path transform="translate(0,0)" fill="rgb(68,68,68)" d="M 1187.84 625.84 C 1191.91 625.585 1190.81 625.096 1193.61 626.771 L 1194.58 631.267 L 1195.58 626.965 C 1198.32 628.48 1198.56 631.09 1201.08 634.337 C 1210.28 640.75 1215.58 668.049 1211.02 677.08 C 1207.14 676.457 1208.71 676.198 1205.14 678.181 C 1206.16 670.416 1207.63 676.126 1210.48 669.492 C 1208.25 664.486 1206.64 669.249 1204.09 663.604 C 1201.47 657.803 1200.9 648.506 1197.24 643.668 C 1194.48 643.642 1194.17 643.689 1191.57 642.88 C 1187.49 635.302 1193.4 637.239 1193.53 630.933 C 1191.96 627.656 1190.99 627.396 1187.84 625.84 z"/>
<path transform="translate(0,0)" fill="rgb(60,60,60)" d="M 1151.68 723.664 L 1151.71 725.764 L 1150.37 726.824 L 1148.9 725.955 C 1148.33 720.177 1153.74 721.498 1153.17 716.559 C 1153 715.084 1148.23 712.48 1148.31 708.921 L 1151.04 709.404 L 1151.93 708.484 C 1149.75 706.407 1146.31 703.407 1147.38 700.214 C 1149.6 703.097 1152.53 707.303 1155.36 709.357 C 1155.26 705.89 1154.82 701.055 1156.05 697.972 C 1158.64 696.472 1163.11 698.328 1168.39 697.479 C 1166.89 694.622 1166.59 694.161 1166.42 690.966 L 1170.43 686.536 C 1170.11 682.195 1170.18 677.55 1166.15 675.477 C 1169.64 675.023 1172.16 675.123 1172.47 671.338 L 1172.34 673.281 L 1171.51 672.54 C 1171.32 673.382 1171.26 675.468 1171.2 676.436 C 1175.15 674.96 1176.59 673.618 1181.84 672.123 C 1186.73 676.775 1182.56 683.203 1184.29 689.882 C 1192.86 688.644 1193.83 687.635 1201.4 691.026 C 1193.75 689.894 1191.94 690.501 1184.66 692.638 C 1183.76 692.174 1182.97 691.772 1182.31 691.434 C 1180.63 687.765 1180.73 685.454 1178.19 684.378 C 1171.09 686.036 1170.29 689.188 1170.37 696.091 C 1173.23 700.224 1174.45 696.813 1174.03 699.703 C 1169.48 700.191 1160.69 700.312 1158.06 703.172 C 1157.44 706.684 1157.74 709.405 1155.52 710.987 L 1152.83 711.178 L 1153.24 712.85 C 1153.87 713.208 1155.12 713.976 1155.74 714.163 L 1156.34 716.537 C 1154.68 718.82 1152.81 721.106 1151.68 723.664 z"/>
<path transform="translate(0,0)" fill="rgb(68,68,68)" d="M 1105.89 777.179 C 1112.22 778.937 1111.93 777.3 1117.2 772.837 L 1118.84 773.37 C 1119.3 774.573 1119.69 775.112 1119.65 776.34 C 1122.18 782.831 1116.79 783.013 1122.8 794.317 C 1115.63 799.434 1118.65 802.846 1112.57 807.932 L 1109.24 803.617 C 1105.59 805.461 1108.05 806.708 1101.94 806.979 L 1101.61 805.87 L 1100.87 807.005 C 1100.94 806.4 1101.02 805.794 1101.09 805.189 C 1103.33 803.374 1104.54 802.103 1106.49 800.058 C 1106.49 796.232 1108.12 797.582 1106.43 791.98 L 1107.34 791.61 L 1106.8 789.489 C 1109.35 782.357 1103.67 783.24 1103.73 777.661 L 1106.2 775.464 L 1105.89 777.179 z"/>
<path transform="translate(0,0)" fill="rgb(60,60,60)" d="M 1106.49 800.058 C 1108.67 797.003 1110.21 794.03 1113.72 792.958 L 1114.32 794.247 C 1112.93 797.619 1111.95 801.547 1109.24 803.617 C 1105.59 805.461 1108.05 806.708 1101.94 806.979 L 1101.61 805.87 L 1100.87 807.005 C 1100.94 806.4 1101.02 805.794 1101.09 805.189 C 1103.33 803.374 1104.54 802.103 1106.49 800.058 z"/>
<path transform="translate(0,0)" fill="rgb(68,68,68)" d="M 1105.89 777.179 C 1112.22 778.937 1111.93 777.3 1117.2 772.837 L 1118.84 773.37 C 1119.3 774.573 1119.69 775.112 1119.65 776.34 L 1116 778.579 C 1114.85 780.935 1114.85 781.177 1114.43 783.829 L 1114.33 784.521 C 1113.45 782.901 1113.46 782.71 1112.04 781.454 L 1108.61 782.492 L 1105.33 779.636 L 1105.89 777.179 z"/>
<path transform="translate(0,0)" fill="rgb(68,68,68)" d="M 1110.55 581.903 C 1118.98 586.289 1115.33 591.991 1118.95 596.417 C 1121.33 594.718 1120.77 594.581 1123.26 594.396 C 1128.42 607.88 1116.04 612.127 1127.85 618.205 C 1126.45 623.145 1124.88 626.645 1121.3 630.493 L 1122.18 631.889 C 1123.82 640.338 1119.95 637.537 1118.5 642.985 C 1117.17 638.429 1116.86 633.514 1115.12 629.837 C 1114.21 625.607 1115.09 626.487 1116.3 621.979 C 1120.1 607.793 1117.34 594.46 1110.55 581.903 z"/>
<path transform="translate(0,0)" fill="rgb(44,43,44)" d="M 865.095 603.036 L 866.787 606.499 C 859.737 609.466 855.69 621.091 852.377 627.869 C 854.039 629.755 855.528 631.205 856.657 633.451 L 855.634 633.779 C 852.924 634.663 851.276 634.95 849.674 637.373 C 849.335 640.294 850.071 641.239 851.305 643.918 C 850.599 646.713 850.992 645.732 848.848 647.975 C 843.079 649.218 843.735 647.566 840.015 650.652 C 838.601 654.616 839.47 655.067 838.897 657.413 C 837.311 656.726 834.928 656.847 833.189 656.888 L 832.293 655.079 C 832.792 651.222 837.364 646.278 840.153 643.488 L 838.943 640.987 C 839.524 638.835 840.415 636.9 841.276 634.843 C 849.396 633.348 849.859 627.139 852.206 620.164 C 854.344 613.81 860.741 608.904 865.095 603.036 z"/>
<path transform="translate(0,0)" fill="rgb(44,43,44)" d="M 949.048 663.873 L 950.54 663.7 C 951.459 665.864 951.538 666.205 951.945 668.531 L 954.021 669.858 C 950.649 679.53 954.461 679.646 949.961 687.224 C 940.932 682.895 937.453 679.612 930.586 672.783 C 936.651 671.808 939.31 668.031 946.928 666.848 L 949.048 663.873 z"/>
<path transform="translate(0,0)" fill="rgb(68,68,68)" d="M 1128.11 746.005 L 1129.4 749.079 C 1131.13 748.929 1131.85 748.83 1133.51 749.519 L 1134.82 751.865 L 1134.31 753.334 L 1130.57 752.071 L 1129.7 753.458 C 1130.85 758.163 1132.56 760.213 1133.02 761.961 C 1130.19 762.669 1128.41 762.986 1125.8 764.425 C 1125.13 767.147 1125.24 766.11 1126.03 768.986 L 1124.94 771.98 L 1123.61 772.379 C 1106.58 756.212 1124.55 759.041 1127.87 746.896 L 1128.11 746.005 z"/>
<path transform="translate(0,0)" fill="rgb(68,68,68)" d="M 1126.36 668.885 C 1129.45 664.789 1131.93 667.066 1133.77 664.157 C 1131.19 662.218 1128.63 660.263 1126.07 658.292 L 1126.35 656.105 C 1129.87 656.41 1135.59 661.44 1135.75 665.125 C 1132.47 668.64 1129.17 669.011 1128.07 671.981 C 1131.93 677.075 1130.02 679.209 1129.24 685.15 C 1116.85 687.851 1121.64 685.456 1114.1 685.398 C 1114.69 683.377 1122.21 676.35 1123.6 674.391 C 1124.97 672.567 1125.5 670.966 1126.36 668.885 z"/>
<path transform="translate(0,0)" fill="rgb(77,77,77)" d="M 1142.63 567.3 C 1149.83 565.905 1162.85 575.821 1168.93 580.162 C 1169.88 582.065 1171.91 585.865 1172.57 587.687 L 1166.03 588.652 C 1164.49 585.839 1162.27 581.753 1158.98 581.24 C 1158.48 582.608 1158.09 583.275 1157.41 584.55 C 1155.99 582.703 1156.41 581.131 1156.52 578.593 C 1154.26 575.494 1144.7 569.648 1140.94 568.689 L 1140.22 568.503 L 1142.63 567.3 z"/>
<path transform="translate(0,0)" fill="rgb(60,60,60)" d="M 1122.18 631.889 L 1125.29 633.114 C 1126 636.915 1125.7 638.077 1125.17 641.871 C 1122.56 649.042 1125.84 648.508 1124.3 654.265 L 1124.12 653.417 C 1124 655.97 1125.65 667.703 1126.36 668.885 C 1125.5 670.966 1124.97 672.567 1123.6 674.391 C 1122.63 669.904 1124.26 665.469 1123.5 659.585 C 1118.09 656.076 1119.98 656.463 1121.16 650.819 L 1117.83 646.65 L 1118.5 642.985 C 1119.95 637.537 1123.82 640.338 1122.18 631.889 z"/>
<path transform="translate(0,0)" fill="rgb(68,68,68)" d="M 1127.85 618.205 C 1129.13 625.038 1131.01 636.651 1125.17 641.871 C 1125.7 638.077 1126 636.915 1125.29 633.114 L 1122.18 631.889 L 1121.3 630.493 C 1124.88 626.645 1126.45 623.145 1127.85 618.205 z"/>
<path transform="translate(0,0)" fill="rgb(60,60,60)" d="M 1166.03 588.652 L 1172.57 587.687 C 1174.58 592.219 1177.38 599.041 1179.56 603.298 C 1179.17 603.192 1178.78 603.08 1178.39 602.96 C 1171.42 600.735 1169.32 594.957 1166.03 588.652 z"/>
<path transform="translate(0,0)" fill="rgb(68,68,68)" d="M 1133.02 761.961 C 1133.76 763.114 1134.19 763.946 1135.13 764.938 L 1135.24 764.106 L 1138.03 763.175 C 1136.96 766.413 1135.07 768.117 1131.84 769.176 L 1130.75 771.098 L 1126.03 768.986 C 1125.24 766.11 1125.13 767.147 1125.8 764.425 C 1128.41 762.986 1130.19 762.669 1133.02 761.961 z"/>
<path transform="translate(0,0)" fill="rgb(60,60,60)" d="M 958.027 743.443 C 958.166 743.523 958.304 743.604 958.442 743.684 C 960.83 748.451 964.799 746.335 968.094 750.585 C 965.865 756.153 964.164 758.007 969.357 760.97 L 968.841 761.826 C 966.109 761.349 963.886 760.811 961.13 761.314 C 959.427 761.63 957.728 761.964 956.033 762.317 L 955.48 761.823 L 958.489 759.476 C 956.901 756.904 956.098 757.245 952.832 755.932 C 952.621 754.097 952.566 754.172 951.71 752.512 C 950.052 754.919 950.472 753.824 950.392 756.846 C 951.559 758.618 952.701 759.957 952.914 762.05 L 950.849 761.69 C 948.815 758.971 949.313 757.335 948.923 753.486 L 945.695 752.577 L 944.888 750.878 L 946.983 748.889 L 946.356 746.638 C 951.055 748.102 953.52 749.722 957.711 746.883 L 958.027 743.443 z"/>
<path transform="translate(0,0)" fill="rgb(60,60,60)" d="M 990.5 737.712 C 991.524 740.421 989.405 743.829 987.815 745.98 C 985.35 749.316 986.932 752.979 987.844 756.742 L 986.622 758.391 C 982.796 759.625 982.282 759.726 978.278 759.538 C 975.119 755.981 971.497 753.187 971.264 749.028 C 973.589 746.473 978.367 746.608 982.176 745.109 C 989.337 742.29 987.174 744.435 990.5 737.712 z"/>
<path transform="translate(0,0)" fill="rgb(68,68,68)" d="M 1178.18 609.63 C 1179.15 615.73 1181.46 616.919 1181.91 622.424 C 1179.46 624.087 1174.51 622.569 1170.97 621.998 L 1170.29 622.797 C 1171.9 623.941 1173.56 624.745 1174.1 626.512 L 1171.19 626.606 C 1171.88 629.468 1171.8 630.16 1171.79 633.147 C 1169.73 636.745 1170.64 635.612 1166.76 637.69 L 1168.67 634.42 C 1168.66 633.564 1168.64 632.802 1168.59 631.944 L 1168.52 630.976 C 1168.18 624.751 1160.97 621.928 1161.29 614.96 L 1161.18 616.2 L 1161.9 614.353 C 1164.66 613.424 1167.11 614.187 1170.06 614.69 C 1171.36 616.234 1171.85 617.494 1172.72 619.29 C 1176.02 620.651 1174.62 620.367 1178.72 619.655 C 1179.85 616.294 1176.79 617.905 1178.18 609.63 z"/>
<path transform="translate(0,0)" fill="rgb(68,68,68)" d="M 1042.98 779.977 C 1046.12 780.153 1047.51 780.304 1048.98 783.04 C 1048.01 786.087 1047.22 787.84 1045.92 790.685 C 1043.66 789.112 1041.05 787.692 1039.81 785.373 C 1040.65 782.513 1040.96 782.2 1042.98 779.977 z"/>
<path transform="translate(0,0)" fill="rgb(44,43,44)" d="M 863.698 630.693 C 866.942 631.442 866.158 630.749 867.727 632.941 C 867.215 635.572 864.695 637.35 862.598 639.328 C 860.939 639.678 860.564 639.472 858.911 639.162 L 858.321 637.532 C 859.156 634.572 861.461 632.81 863.698 630.693 z"/>
<path transform="translate(0,0)" fill="rgb(68,68,68)" d="M 1053.46 782.401 C 1055.59 783.303 1056.17 783.906 1058.01 785.358 C 1057.4 788.04 1055.14 788.7 1052.23 790.694 L 1052.03 790.89 L 1049.97 790.268 L 1050.2 791.592 L 1050.29 791.524 C 1049.32 790.955 1049.6 791.347 1049.29 790.473 C 1049.79 786.758 1051.18 785.387 1053.46 782.401 z"/>
<path transform="translate(0,0)" fill="rgb(44,43,44)" d="M 926.234 465.612 C 934.456 457.828 987.584 422.495 998.072 422.104 C 1003.11 424.828 1013.14 436.351 1016.37 441.091 C 1022.84 448.423 1022.78 470.8 1017.85 479.163 C 1018.63 483.863 1017.41 481.663 1015.64 486.23 C 1016.17 491.776 1013.35 494.902 1008.76 497.506 C 999.874 502.694 1001.98 504.937 997.39 509.213 C 993.031 513.277 970.726 525.1 965.163 525.753 C 966.719 525.711 952.915 529.253 954.207 528.626 C 938.9 536.888 921.454 555.388 914.961 571.779 C 910.721 576.242 902.704 600.634 903.53 607.937 C 900.312 606.988 885.751 607.658 881.325 605.88 C 876.644 603.999 875.24 603.42 870.124 605.132 L 866.787 606.499 L 865.095 603.036 C 866.033 600.037 867.396 597.744 866.649 595.255 L 864.268 595.327 L 863.238 594.016 C 863.788 589.518 867.75 580.645 870.264 576.845 L 874.199 571.15 L 876.429 566.996 C 879.513 556.931 888.132 551.225 887.18 544.783 L 884.152 548.418 C 879.167 546.189 879.48 545.092 877.559 540.547 C 876.933 540.118 873.19 535.877 872.418 535.025 L 869.842 537.299 L 865.273 535.812 L 864.084 533.163 C 861.804 534.927 857.679 537.351 854.753 537.787 C 855.645 535.835 891.247 495.623 896.118 489.5 L 895.701 488.6 C 892.485 490.575 888.068 495.142 885.206 497.891 C 888.124 493.882 894.251 482.684 898.773 481.819 L 900.385 482.934 L 900.47 488.077 L 903.508 484.906 C 905.68 471.497 918.678 473.056 926.234 465.612 z"/>
<path transform="translate(0,0)" fill="rgb(68,68,68)" d="M 955.401 513.152 C 957.706 517.7 955.705 519.757 959.044 523.854 C 961.206 524.43 961.375 524.339 963.636 524.026 L 965.163 525.753 C 966.719 525.711 952.915 529.253 954.207 528.626 C 938.9 536.888 921.454 555.388 914.961 571.779 C 910.721 576.242 902.704 600.634 903.53 607.937 C 900.312 606.988 885.751 607.658 881.325 605.88 C 876.644 603.999 875.24 603.42 870.124 605.132 L 866.787 606.499 L 865.095 603.036 C 866.033 600.037 867.396 597.744 866.649 595.255 L 864.268 595.327 L 863.238 594.016 C 863.788 589.518 867.75 580.645 870.264 576.845 L 874.199 571.15 L 876.429 566.996 C 879.513 556.931 888.132 551.225 887.18 544.783 L 887.668 544.253 C 888.703 543.271 889.944 542.524 891.137 541.729 C 898.635 544.618 905.091 545.06 908.733 536.668 L 910.163 534.756 C 912.252 532.052 911.505 532.165 911.34 527.818 C 913.619 529.132 913.282 529.746 916.39 530.941 C 917.054 519.899 919.616 527.039 924.473 516.665 L 927.787 520.187 C 935.681 523.664 940.633 515.071 946.38 517.674 C 947.605 521.202 947.71 523.442 951.414 524.404 C 953.69 522.709 951.914 521.671 952.217 519.077 C 952.217 519.075 955.164 513.592 955.401 513.152 z"/>
<path transform="translate(0,0)" fill="rgb(100,100,99)" d="M 874.199 571.15 L 876.429 566.996 C 877.362 572.858 875.631 575.435 873.87 580.751 C 872.854 583.817 870.405 587.377 874.023 589.101 C 876.505 590.565 878.723 592.366 881.723 592.397 L 882.095 591.255 L 880.447 588.795 C 881.139 586.825 887.446 582.364 889.196 581.031 C 891.426 579.333 892.472 583.783 897.085 582.09 C 897.619 579.662 897.647 578.908 897.671 576.415 C 899.941 576.079 900.399 576.423 902.647 577.203 L 903.609 575.891 C 902.156 574.322 901.001 573.223 899.415 571.787 C 900.065 570.708 899.909 571.167 901.732 570.591 C 906.262 572.504 906.384 573.347 910.598 569.733 C 911.962 570.366 913.657 571.099 914.961 571.779 C 910.721 576.242 902.704 600.634 903.53 607.937 C 900.312 606.988 885.751 607.658 881.325 605.88 C 876.644 603.999 875.24 603.42 870.124 605.132 L 866.787 606.499 L 865.095 603.036 C 866.033 600.037 867.396 597.744 866.649 595.255 L 864.268 595.327 L 863.238 594.016 C 863.788 589.518 867.75 580.645 870.264 576.845 L 874.199 571.15 z"/>
<path transform="translate(0,0)" fill="rgb(217,215,216)" d="M 865.095 603.036 C 866.033 600.037 867.396 597.744 866.649 595.255 L 864.268 595.327 L 863.238 594.016 C 863.788 589.518 867.75 580.645 870.264 576.845 C 874.066 584.628 868.399 587.887 868.625 595.68 C 870.379 595.89 870.046 595.674 871.955 594.679 C 873.874 597.348 871.269 602.083 870.124 605.132 L 866.787 606.499 L 865.095 603.036 z"/>
<path transform="translate(0,0)" fill="rgb(131,130,130)" d="M 889.08 588.58 C 897.333 592.107 896.452 598.448 890.433 603.647 C 887.625 604.557 888.041 604.926 885.761 604.209 C 885.346 600.621 887.81 592.019 889.08 588.58 z"/>
<path transform="translate(0,0)" fill="rgb(68,68,68)" d="M 955.401 513.152 C 957.706 517.7 955.705 519.757 959.044 523.854 C 961.206 524.43 961.375 524.339 963.636 524.026 L 965.163 525.753 C 966.719 525.711 952.915 529.253 954.207 528.626 C 950.15 527.402 949.605 527.47 945.469 528.254 C 941.36 525.909 936.946 522.058 932.405 523.194 C 923.633 525.388 917.957 541.339 908.733 536.668 L 910.163 534.756 C 912.252 532.052 911.505 532.165 911.34 527.818 C 913.619 529.132 913.282 529.746 916.39 530.941 C 917.054 519.899 919.616 527.039 924.473 516.665 L 927.787 520.187 C 935.681 523.664 940.633 515.071 946.38 517.674 C 947.605 521.202 947.71 523.442 951.414 524.404 C 953.69 522.709 951.914 521.671 952.217 519.077 C 952.217 519.075 955.164 513.592 955.401 513.152 z"/>
<path transform="translate(0,0)" fill="rgb(68,68,68)" d="M 926.234 465.612 C 928.181 467.873 929.271 468.866 930.21 471.774 C 927.543 479.383 916.867 478.72 914.709 485.532 C 919.753 486.158 922.388 481.235 925.424 483.392 C 925.785 482.957 926.145 482.523 926.506 482.089 L 925.558 482.102 L 925.167 483.564 C 913.573 482.381 920.558 491.928 913.805 496.608 C 909.41 499.653 908.705 501.815 906.627 506.723 C 907.241 508.855 907.886 510.979 908.562 513.094 C 905.361 513.238 907.464 511.189 902.928 511.976 C 901.643 514.266 901.726 514.48 901.592 517.176 C 899.764 519.064 899.583 519.007 896.878 519.468 C 891.491 525.703 893.899 530.85 884.715 538.031 C 884.809 540.508 885.334 542.757 887.668 544.253 L 887.18 544.783 L 884.152 548.418 C 879.167 546.189 879.48 545.092 877.559 540.547 C 876.933 540.118 873.19 535.877 872.418 535.025 L 869.842 537.299 L 865.273 535.812 L 864.084 533.163 C 861.804 534.927 857.679 537.351 854.753 537.787 C 855.645 535.835 891.247 495.623 896.118 489.5 L 895.701 488.6 C 892.485 490.575 888.068 495.142 885.206 497.891 C 888.124 493.882 894.251 482.684 898.773 481.819 L 900.385 482.934 L 900.47 488.077 L 903.508 484.906 C 905.68 471.497 918.678 473.056 926.234 465.612 z"/>
<path transform="translate(0,0)" fill="rgb(100,100,99)" d="M 885.206 497.891 C 888.124 493.882 894.251 482.684 898.773 481.819 L 900.385 482.934 L 900.47 488.077 C 898.809 494.295 900.049 491.168 901.978 496.665 C 902.628 498.517 898.275 496.723 896.561 504.163 C 896.066 509.258 882.32 520.842 878.771 525.853 C 877.223 528.039 873.728 533.437 872.418 535.025 L 869.842 537.299 L 865.273 535.812 L 864.084 533.163 C 861.804 534.927 857.679 537.351 854.753 537.787 C 855.645 535.835 891.247 495.623 896.118 489.5 L 895.701 488.6 C 892.485 490.575 888.068 495.142 885.206 497.891 z"/>
<path transform="translate(0,0)" fill="rgb(217,215,216)" d="M 864.084 533.163 L 864.602 530.236 C 874.706 526.897 887.705 504.284 896.561 504.163 C 896.066 509.258 882.32 520.842 878.771 525.853 C 877.223 528.039 873.728 533.437 872.418 535.025 L 869.842 537.299 L 865.273 535.812 L 864.084 533.163 z"/>
<path transform="translate(0,0)" fill="rgb(68,68,68)" d="M 924.473 516.665 C 926.375 516.487 930.335 518.561 930.659 518.504 C 940.593 516.774 949.518 512.209 958.776 508.502 C 961.458 507.428 964.739 511.099 968.963 511.247 C 974.722 506.673 969.49 509.728 974.747 508.782 L 973.234 505.857 C 973.464 500.764 981.12 494.141 985.522 492.255 C 988.529 490.966 989.23 496.061 993.452 497.749 C 998.558 496.53 1000.4 489.994 1003.24 489.565 C 1009.53 488.615 1008.99 490.43 1015.64 486.23 C 1016.17 491.776 1013.35 494.902 1008.76 497.506 C 999.874 502.694 1001.98 504.937 997.39 509.213 C 993.031 513.277 970.726 525.1 965.163 525.753 L 963.636 524.026 C 961.375 524.339 961.206 524.43 959.044 523.854 C 955.705 519.757 957.706 517.7 955.401 513.152 C 955.164 513.592 952.217 519.075 952.217 519.077 C 951.914 521.671 953.69 522.709 951.414 524.404 C 947.71 523.442 947.605 521.202 946.38 517.674 C 940.633 515.071 935.681 523.664 927.787 520.187 L 924.473 516.665 z"/>
<path transform="translate(0,0)" fill="rgb(60,60,60)" d="M 955.401 513.152 L 958.412 510.775 C 965.57 509.756 973.288 518.236 976.627 506.74 C 979.655 505.588 984.327 507.057 987.663 507.793 C 1000.07 504.527 991.781 497.052 1008.76 497.506 C 999.874 502.694 1001.98 504.937 997.39 509.213 C 993.031 513.277 970.726 525.1 965.163 525.753 L 963.636 524.026 C 961.375 524.339 961.206 524.43 959.044 523.854 C 955.705 519.757 957.706 517.7 955.401 513.152 z"/>
<path transform="translate(0,0)" fill="rgb(68,68,68)" d="M 906.627 506.723 C 908.133 508.2 909.437 509.502 911.055 510.856 L 913.092 510.128 C 912.951 511.965 911.189 513.469 909.867 514.935 C 903.936 516.835 905.792 512.632 903.778 515.853 L 905.587 520.218 C 904.393 521.399 902.578 521.293 900.778 521.488 L 899.552 522.5 C 899.637 525.912 899.281 524.558 901.444 527.73 L 903.134 527.807 C 905.685 525.236 906.585 523.128 909.246 522.215 L 910.12 523.142 L 909.588 526.938 L 911.34 527.818 C 911.505 532.165 912.252 532.052 910.163 534.756 L 908.733 536.668 C 905.091 545.06 898.635 544.618 891.137 541.729 C 889.944 542.524 888.703 543.271 887.668 544.253 C 885.334 542.757 884.809 540.508 884.715 538.031 C 893.899 530.85 891.491 525.703 896.878 519.468 C 899.583 519.007 899.764 519.064 901.592 517.176 C 901.726 514.48 901.643 514.266 902.928 511.976 C 907.464 511.189 905.361 513.238 908.562 513.094 C 907.886 510.979 907.241 508.855 906.627 506.723 z"/>
<path transform="translate(0,0)" fill="rgb(60,60,60)" d="M 884.715 538.031 L 886.889 541.118 C 894.942 541.059 899.423 528.673 906.887 529.728 C 908.981 531.622 909.109 532.112 910.163 534.756 L 908.733 536.668 C 905.091 545.06 898.635 544.618 891.137 541.729 C 889.944 542.524 888.703 543.271 887.668 544.253 C 885.334 542.757 884.809 540.508 884.715 538.031 z"/>
<path transform="translate(0,0)" fill="rgb(68,68,68)" d="M 1016.37 441.091 C 1022.84 448.423 1022.78 470.8 1017.85 479.163 C 1015.66 474.817 1019.85 477.358 1016.01 470.696 L 1015.82 474.945 C 1013.92 477.037 1014.97 476.513 1011.99 476.751 C 1010.15 474.485 1010.61 475.58 1010.55 472.408 C 1014.26 467.964 1014.66 470.657 1019.78 467.026 L 1019.61 465.68 L 1015.88 464.928 C 1014.79 462.196 1013.06 459.28 1013.51 456.834 L 1016.34 457.306 C 1021.97 453 1014.9 450.296 1016.37 441.091 z"/>
<path transform="translate(0,0)" fill="rgb(166,165,165)" d="M 1001.77 334.769 C 1002.64 335.098 1005.95 336.405 1006.65 336.551 C 1021.89 339.111 1053.23 341.093 1062.66 351.092 C 1064.48 349.639 1065.92 347.836 1067.99 348.199 C 1076.76 349.733 1096.21 370.756 1101.46 377.649 C 1117.69 400.354 1130.83 420.368 1116.56 448.836 C 1114.54 452.619 1113.64 454.841 1110.38 457.646 C 1108.11 457.903 1108.13 457.959 1105.91 457.526 C 1099.36 459.54 1093.94 470.062 1085.3 465.678 C 1084.54 466.842 1082.19 469.311 1081.15 470.47 C 1070.85 470.876 1064.38 483.767 1056.2 489.754 C 1046.17 497.09 1025.38 518.234 1014.87 522.63 C 1019.53 516.721 1022.49 516.028 1026.9 510.933 C 1038.99 496.964 1047.61 482.915 1056.33 466.766 C 1048.66 472.566 1042.56 478.163 1034.26 483.504 C 1046.63 470.779 1047.88 466.457 1057.06 451.745 C 1057.4 448.157 1060.71 441.497 1061.89 435.168 C 1061.73 433.42 1062.4 432.009 1062.97 430.318 C 1063.82 422.358 1061.59 417.012 1059.41 409.331 C 1056.1 406.164 1052.27 401.582 1048.11 399.667 C 1044.6 398.047 1042.78 397.884 1039.31 395.639 C 1034.97 393.832 1004.52 384.212 1000.79 384.114 C 990.018 376.4 987.171 376.397 977.747 365.485 L 981.274 359.971 C 986.48 364.938 989.206 366.534 995.643 369.734 C 998.194 363.785 1001.04 361.138 1007.78 360.852 C 1005.53 360.165 1006.44 360.787 1004.99 358.85 C 1005.98 350.227 998.706 346.658 1001.77 334.769 z"/>
<path transform="translate(0,0)" fill="rgb(201,200,200)" d="M 1062.66 351.092 C 1064.48 349.639 1065.92 347.836 1067.99 348.199 C 1076.76 349.733 1096.21 370.756 1101.46 377.649 C 1117.69 400.354 1130.83 420.368 1116.56 448.836 C 1114.54 452.619 1113.64 454.841 1110.38 457.646 C 1108.11 457.903 1108.13 457.959 1105.91 457.526 C 1099.36 459.54 1093.94 470.062 1085.3 465.678 C 1088.71 460.745 1087.93 460.973 1093.2 457.559 C 1093.56 456.23 1095.61 454.941 1096.69 454.239 L 1097.2 453.915 C 1101.52 443.195 1108.75 446.774 1108.83 430.56 C 1108.29 429.012 1107.8 428.499 1106.86 427.205 C 1102.72 425.778 1101.18 425.074 1096.84 425.044 C 1095.11 424.838 1095.16 424.641 1093.78 423.506 C 1093.7 417.118 1093.5 417.683 1088.16 415.847 C 1087.59 410.555 1092.31 390.916 1088.64 382.165 L 1091.16 378.338 C 1089.36 372.285 1085.21 376.772 1081.93 368.09 C 1076.02 364.851 1076.28 364.151 1072.87 358.741 L 1072.46 358.074 L 1067.62 359.392 C 1066.21 356.601 1064.33 353.766 1062.66 351.092 z"/>
<path transform="translate(0,0)" fill="rgb(217,215,216)" d="M 1101.46 377.649 C 1117.69 400.354 1130.83 420.368 1116.56 448.836 C 1114.75 444.244 1115.79 444.685 1112.32 443.133 C 1112.76 441.802 1112.97 441.143 1113.6 439.881 L 1114.06 438.97 C 1113.33 433.533 1112.2 419.123 1109.56 415.121 C 1106.07 409.831 1108.46 406.609 1106.92 399.833 C 1105.56 396.654 1102.67 397.162 1101.39 393.266 L 1101.46 377.649 z"/>
<path transform="translate(0,0)" fill="rgb(217,215,216)" d="M 1062.66 351.092 C 1064.48 349.639 1065.92 347.836 1067.99 348.199 C 1076.76 349.733 1096.21 370.756 1101.46 377.649 L 1101.39 393.266 C 1099.78 391.579 1098.59 390.231 1097.11 388.423 C 1098.5 385.409 1099.15 382.686 1096.41 380.38 L 1093.14 381.184 C 1091.9 378.211 1094.5 379.222 1092.32 375.333 C 1089.29 369.91 1087.1 371.256 1082.52 368.459 L 1081.93 368.09 C 1076.02 364.851 1076.28 364.151 1072.87 358.741 L 1072.46 358.074 L 1067.62 359.392 C 1066.21 356.601 1064.33 353.766 1062.66 351.092 z"/>
<path transform="translate(0,0)" fill="rgb(230,230,229)" d="M 1112.32 443.133 C 1115.79 444.685 1114.75 444.244 1116.56 448.836 C 1114.54 452.619 1113.64 454.841 1110.38 457.646 C 1108.11 457.903 1108.13 457.959 1105.91 457.526 C 1107.99 452.728 1110.19 447.91 1112.32 443.133 z"/>
<path transform="translate(0,0)" fill="rgb(230,230,229)" d="M 1094.75 391.285 L 1096.7 392.823 C 1097.22 400.014 1101.19 402.028 1102.49 409.334 C 1095.5 406.131 1092.83 398.666 1094.75 391.285 z"/>
<path transform="translate(0,0)" fill="rgb(201,200,200)" d="M 977.747 365.485 L 981.274 359.971 C 986.48 364.938 989.206 366.534 995.643 369.734 C 998.194 363.785 1001.04 361.138 1007.78 360.852 L 1010.95 362.44 L 1011.48 362.82 C 1011.12 362.567 1022.44 369.742 1021.05 369.323 C 1024.89 370.482 1029.74 370.381 1033.74 372.555 C 1034.32 374.461 1034.46 374.764 1034.5 376.847 C 1038.51 376.297 1038.45 375.628 1039.73 371.571 C 1042.65 371.96 1042.92 373.003 1043.48 375.772 C 1045.53 375.515 1045.88 375.401 1047.86 374.776 C 1051 376.875 1056.7 380.413 1059.36 382.617 C 1058.7 384.035 1058.2 385.053 1057.44 386.418 L 1058.48 386.479 C 1061.3 386.659 1062.87 386.536 1065.04 388.443 C 1065.56 390.528 1065.32 390.854 1064.68 392.86 C 1069.67 403.102 1071.6 409.644 1066.21 420.108 C 1064.56 423.323 1064.25 427.05 1062.97 430.318 C 1063.82 422.358 1061.59 417.012 1059.41 409.331 C 1056.1 406.164 1052.27 401.582 1048.11 399.667 C 1044.6 398.047 1042.78 397.884 1039.31 395.639 C 1034.97 393.832 1004.52 384.212 1000.79 384.114 C 990.018 376.4 987.171 376.397 977.747 365.485 z"/>
<path transform="translate(0,0)" fill="rgb(217,215,216)" d="M 1015.3 379.263 C 1023.82 387.919 1032.86 380.176 1039.31 395.639 C 1034.97 393.832 1004.52 384.212 1000.79 384.114 C 1002.37 382.457 1002.58 382.244 1004.43 380.923 C 1009.79 381.706 1010.42 381.601 1015.3 379.263 z"/>
<path transform="translate(0,0)" fill="rgb(230,230,229)" d="M 1007.78 360.852 L 1010.95 362.44 C 1009.48 363.816 1007.04 365.962 1005.76 367.363 L 1004.18 367.202 C 1002.96 369.366 1001.92 371.123 1000.54 373.193 C 997.783 372.187 997.408 372.054 995.643 369.734 C 998.194 363.785 1001.04 361.138 1007.78 360.852 z"/>
<path transform="translate(0,0)" fill="rgb(217,215,216)" d="M 1000.54 373.193 C 1001.92 371.123 1002.96 369.366 1004.18 367.202 L 1005.76 367.363 C 1007.61 373.983 1010.6 374.269 1011.83 378.458 C 1009.29 377.91 1003.18 374.546 1000.54 373.193 z"/>
<path transform="translate(0,0)" fill="rgb(230,230,229)" d="M 1096.84 425.044 C 1101.18 425.074 1102.72 425.778 1106.86 427.205 C 1107.8 428.499 1108.29 429.012 1108.83 430.56 C 1108.75 446.774 1101.52 443.195 1097.2 453.915 L 1096.69 454.239 C 1095.61 454.941 1093.56 456.23 1093.2 457.559 L 1090.07 454.671 C 1089.12 452.015 1089.35 449.082 1090.69 446.6 C 1094.03 440.493 1096.49 444.486 1100.23 443.181 C 1099.31 438.604 1098.28 438.433 1094.3 435.368 C 1097.07 434.293 1097.67 434.598 1099.15 432.445 C 1098.55 429.694 1097.77 427.672 1096.84 425.044 z"/>
<path transform="translate(0,0)" fill="rgb(145,145,144)" d="M 1001.77 334.769 C 1002.64 335.098 1005.95 336.405 1006.65 336.551 C 1007.18 345.641 1008.56 346.595 1016.49 351.041 C 1015.94 354.563 1015.66 356.205 1015.7 359.805 C 1012.36 360.532 1011.3 360.741 1007.78 360.852 C 1005.53 360.165 1006.44 360.787 1004.99 358.85 C 1005.98 350.227 998.706 346.658 1001.77 334.769 z"/>
<path transform="translate(0,0)" fill="rgb(131,130,130)" d="M 1016.49 351.041 C 1023.27 352.589 1023.83 353.122 1031.23 353.714 L 1031.89 349.809 C 1035.01 350.837 1038.85 355.938 1040.19 358.937 C 1039.36 360.989 1040.04 360.172 1037.85 361.255 C 1038.94 362.227 1040.01 363.227 1041.05 364.254 C 1036.68 366.307 1035.29 361.703 1030.63 360.794 C 1027 360.088 1018.35 361.11 1015.7 359.805 C 1015.66 356.205 1015.94 354.563 1016.49 351.041 z"/>
<path transform="translate(0,0)" fill="rgb(230,230,229)" d="M 1067.62 359.392 L 1072.46 358.074 L 1072.87 358.741 C 1076.28 364.151 1076.02 364.851 1081.93 368.09 C 1085.21 376.772 1089.36 372.285 1091.16 378.338 L 1088.64 382.165 C 1087.48 382.428 1083.03 381.162 1081.48 380.857 C 1077.66 377.421 1078.29 376.829 1077.04 371.348 C 1076.09 367.954 1070.39 361.796 1067.62 359.392 z"/>
<path transform="translate(0,0)" fill="rgb(68,68,68)" d="M 1061.89 435.168 C 1063.49 436.262 1066.06 437.537 1066.11 439.203 C 1066.27 445.658 1066.15 450.866 1063.44 456.52 L 1061.81 457.459 C 1059.17 456.23 1058.54 454.354 1057.06 451.745 C 1057.4 448.157 1060.71 441.497 1061.89 435.168 z"/>
<path transform="translate(0,0)" fill="rgb(217,215,216)" d="M 1088.16 415.847 C 1093.5 417.683 1093.7 417.118 1093.78 423.506 C 1095.16 424.641 1095.11 424.838 1096.84 425.044 C 1097.77 427.672 1098.55 429.694 1099.15 432.445 C 1097.67 434.598 1097.07 434.293 1094.3 435.368 L 1093 434.346 C 1093.27 431.225 1093.42 430.607 1092.19 427.765 C 1090.36 426.453 1090.24 426.366 1088.06 425.668 L 1087.57 425.514 L 1087.24 421.952 L 1091.16 420.557 L 1088.16 415.847 z"/>
<path transform="translate(0,0)" fill="rgb(201,200,200)" d="M 1043.9 195.831 L 1045.16 188.098 C 1049.3 196.306 1052.33 212.683 1043.62 218.7 C 1037.91 225.032 1032.01 237.667 1027.27 245.769 C 1024.9 250.442 1022.73 252.603 1018.01 255.088 C 1014.51 256.441 1013.37 256.078 1009.89 255.364 C 1007.25 256.402 1008.14 255.93 1006.18 258.275 C 1007.61 259.468 1009.29 259.282 1011.24 259.407 C 1010.62 263.917 979.053 289.001 982.357 295.95 C 988.157 294.796 1007.85 266.572 1014.81 267.796 C 1005.34 278.97 990.82 289.576 983.057 302.49 C 982.446 303.507 982.01 304.014 981.281 304.925 C 980.356 307.874 979.779 309.192 979.688 312.332 L 978.313 308.567 L 977.491 311.307 C 973.01 311.57 974.517 310.964 971.152 313.149 C 968.128 318.109 970.024 320.7 967.277 322.099 C 964.754 320.775 964.141 320.377 961.963 318.541 C 961.288 319.117 960.27 319.894 959.766 320.564 C 959.133 320.057 957.955 318.265 957.408 317.504 L 959.743 315.455 L 957.966 310.083 C 958.606 307.575 959.296 307.345 961.433 305.605 L 960.817 303.795 C 960.096 294.943 966.44 285.793 971.282 278.976 C 973.262 274.243 982.712 262.419 986.318 258.766 C 986.159 258.926 995.745 259.234 998.698 249.983 C 1001.25 241.98 1042.53 218.354 1034.21 207.932 L 1035.29 205.879 C 1041.38 202.731 1041.81 202.573 1043.94 196.583 L 1043.9 195.831 z"/>
<path transform="translate(0,0)" fill="rgb(131,130,130)" d="M 971.282 278.976 L 975.892 278.176 C 982.961 283.325 983.022 296.744 980.645 304.145 L 981.281 304.925 C 980.356 307.874 979.779 309.192 979.688 312.332 L 978.313 308.567 L 977.491 311.307 C 973.01 311.57 974.517 310.964 971.152 313.149 C 968.128 318.109 970.024 320.7 967.277 322.099 C 964.754 320.775 964.141 320.377 961.963 318.541 C 961.288 319.117 960.27 319.894 959.766 320.564 C 959.133 320.057 957.955 318.265 957.408 317.504 L 959.743 315.455 L 957.966 310.083 C 958.606 307.575 959.296 307.345 961.433 305.605 L 960.817 303.795 C 960.096 294.943 966.44 285.793 971.282 278.976 z"/>
<path transform="translate(0,0)" fill="rgb(145,145,144)" d="M 971.282 278.976 L 975.892 278.176 C 982.961 283.325 983.022 296.744 980.645 304.145 C 975.997 295.551 973.416 304.449 975.86 294.807 C 976.129 293.745 976.104 294.184 975.901 293.134 C 974.114 292.88 971.331 294.233 967.083 293.741 L 965.361 295.022 C 965.014 297.884 965.181 298.374 965.646 301.269 C 964.214 303.853 963.978 304.108 961.433 305.605 L 960.817 303.795 C 960.096 294.943 966.44 285.793 971.282 278.976 z"/>
<path transform="translate(0,0)" fill="rgb(230,230,229)" d="M 1043.9 195.831 L 1045.16 188.098 C 1049.3 196.306 1052.33 212.683 1043.62 218.7 L 1039.02 218.985 L 1038.89 217.516 C 1043.61 211.682 1044.13 203.991 1043.94 196.583 L 1043.9 195.831 z"/>
<path transform="translate(0,0)" fill="rgb(230,230,229)" d="M 1018.01 255.088 L 1018.39 253.529 C 1016.62 250.659 1016.55 254.652 1012.67 253.097 C 1013.32 245.468 1019.83 249.296 1024.86 240.554 L 1026.35 240.506 C 1026.39 242.567 1026.59 243.824 1027.27 245.769 C 1024.9 250.442 1022.73 252.603 1018.01 255.088 z"/>
<path transform="translate(0,0)" fill="url(#Gradient2)" d="M 959.766 320.564 C 960.27 319.894 961.288 319.117 961.963 318.541 C 964.141 320.377 964.754 320.775 967.277 322.099 C 970.024 320.7 968.128 318.109 971.152 313.149 C 974.517 310.964 973.01 311.57 977.491 311.307 L 978.313 308.567 L 979.688 312.332 L 979.765 313.144 C 982.626 323.916 990.938 332.183 1001.77 334.769 C 998.706 346.658 1005.98 350.227 1004.99 358.85 C 1006.44 360.787 1005.53 360.165 1007.78 360.852 C 1001.04 361.138 998.194 363.785 995.643 369.734 C 989.206 366.534 986.48 364.938 981.274 359.971 L 977.747 365.485 C 970.432 359.476 974.228 356.869 967.409 352.088 C 966.843 351.066 963.506 339.935 961.593 337.92 C 962.532 338.909 960.312 334.441 960.446 334.683 L 961.161 329.615 C 960.324 328.185 959.979 322.596 959.766 320.564 z"/>
<path transform="translate(0,0)" fill="rgb(166,165,165)" d="M 961.161 329.615 C 962.07 333.487 962.189 335.249 965.051 337.996 C 972.485 341.208 971.829 337.551 980.756 343.981 L 981.082 345.545 C 984.152 346.539 989.616 351.631 992.917 353.69 C 997.427 356.502 1000.7 356.601 1004.99 358.85 C 1006.44 360.787 1005.53 360.165 1007.78 360.852 C 1001.04 361.138 998.194 363.785 995.643 369.734 C 989.206 366.534 986.48 364.938 981.274 359.971 L 977.747 365.485 C 970.432 359.476 974.228 356.869 967.409 352.088 C 966.843 351.066 963.506 339.935 961.593 337.92 C 962.532 338.909 960.312 334.441 960.446 334.683 L 961.161 329.615 z"/>
<path transform="translate(0,0)" fill="rgb(217,215,216)" d="M 967.409 352.088 C 973.859 351.274 980.197 352.112 981.274 359.971 L 977.747 365.485 C 970.432 359.476 974.228 356.869 967.409 352.088 z"/>
<path transform="translate(0,0)" fill="rgb(100,100,99)" d="M 959.766 320.564 C 960.27 319.894 961.288 319.117 961.963 318.541 C 964.141 320.377 964.754 320.775 967.277 322.099 C 970.024 320.7 968.128 318.109 971.152 313.149 C 974.517 310.964 973.01 311.57 977.491 311.307 L 978.313 308.567 L 979.688 312.332 L 979.765 313.144 C 976.956 313.606 974.259 313.996 971.497 314.705 C 971.482 324.08 976.19 321.292 970.164 329.232 L 970.38 331.265 C 975.381 335.176 975.095 334.092 980.237 339.09 C 980.415 340.647 980.664 342.442 980.756 343.981 C 971.829 337.551 972.485 341.208 965.051 337.996 C 962.189 335.249 962.07 333.487 961.161 329.615 C 960.324 328.185 959.979 322.596 959.766 320.564 z"/>
<path transform="translate(0,0)" fill="url(#Gradient1)" d="M 962.187 589.767 C 969.639 589.903 974.9 591.501 977.76 599.253 C 980.227 605.942 978.124 613.101 975.239 619.266 C 972.556 624.999 970.667 624.028 965.544 626.387 C 939.965 625.978 945.827 602.443 962.187 589.767 z"/>
<path transform="translate(0,0)" fill="rgb(68,68,68)" d="M 1058.46 590.024 C 1060.1 590 1064.77 589.673 1066.13 590.298 C 1076.8 595.221 1083.23 611.355 1078.8 622.263 C 1078.35 623.374 1077.79 624.603 1077.31 625.659 L 1075.66 625.124 L 1072.49 624.136 C 1069.68 624.801 1068.95 624.92 1066.07 624.962 C 1054.31 617.93 1044.29 599.497 1058.46 590.024 z"/>
<path transform="translate(0,0)" fill="rgb(68,68,68)" d="M 1142.63 567.3 C 1138.69 564.159 1128.54 547.184 1128.57 543.039 L 1125.79 539.869 C 1125.97 537.166 1125.49 538.308 1127.27 536.311 C 1133.28 538.718 1135.4 547.848 1140.64 550.939 L 1141.44 547.293 C 1151.44 550.438 1165.93 570.041 1168.93 580.162 C 1162.85 575.821 1149.83 565.905 1142.63 567.3 z"/>
<path transform="translate(0,0)" fill="rgb(230,230,229)" d="M 805.271 647.354 L 802.544 647.594 C 800.077 646.373 800.871 647.191 799.745 644.539 C 804.199 637.374 801.159 621.019 804.846 616.801 C 805.98 618.39 806.389 618.921 807.717 620.338 C 816.978 615.286 810.785 595.142 821.31 591.058 C 824.499 592.389 825.735 592.704 828.099 595.364 C 826.767 598.308 828.632 598.752 827.195 601.236 C 825.536 600.845 824.42 600.441 822.721 600.66 C 822.323 610.059 824.34 614.154 816.874 619.788 L 816.273 624.241 C 815.472 624.571 810.017 630.09 809.613 630.724 C 806.543 635.552 804.676 641.574 805.271 647.354 z"/>
<path transform="translate(0,0)" fill="rgb(68,68,68)" d="M 814.573 612.715 C 815.962 617.709 814.848 622.645 811.2 626.194 C 809.085 621.655 812.469 616.94 814.573 612.715 z"/>
<path transform="translate(0,0)" fill="rgb(166,165,165)" d="M 1032.86 191.888 C 1033.27 189.715 1035.54 185.237 1036.58 183.029 C 1042.05 171.392 1042.22 169.182 1042.54 156.857 C 1049.36 170.069 1049.25 174.511 1045.16 188.098 L 1043.9 195.831 L 1043.94 196.583 C 1041.81 202.573 1041.38 202.731 1035.29 205.879 L 1034.21 207.932 L 1032.96 207.904 C 1030.35 207.169 1032.83 209.482 1026.42 209.06 C 1032.62 198.104 1030.18 199.211 1032.86 191.888 z"/>
<path transform="translate(0,0)" fill="rgb(145,145,144)" d="M 1032.86 191.888 C 1036.68 191.28 1039.09 186.751 1043.06 188.252 L 1041.21 192.55 C 1042.3 194.294 1042.29 194.414 1043.9 195.831 L 1043.94 196.583 C 1041.81 202.573 1041.38 202.731 1035.29 205.879 L 1034.21 207.932 L 1032.96 207.904 C 1030.35 207.169 1032.83 209.482 1026.42 209.06 C 1032.62 198.104 1030.18 199.211 1032.86 191.888 z"/>
<path transform="translate(0,0)" fill="rgb(230,230,229)" d="M 1140.51 823.429 L 1142.06 825.597 C 1141 829.121 1136.85 835.752 1134.43 838.471 L 1135.14 840.864 C 1132.89 839.963 1132.87 839.636 1131.53 837.462 C 1126.55 839.942 1116.87 846.11 1112.68 846.992 L 1111.84 845.639 L 1106.82 847.791 L 1106.1 846.922 C 1108.31 843.383 1108.82 842.426 1112.35 840.187 L 1113.1 839.718 L 1113.13 837.575 C 1115.92 834.617 1116.31 834.296 1120.23 833.061 C 1129.86 833.044 1132.46 829.375 1140.51 823.429 z"/>
<path transform="translate(0,0)" fill="rgb(68,68,68)" d="M 1111.84 845.639 C 1115.34 843.431 1131.03 834.407 1134.03 834.845 L 1131.53 837.462 C 1126.55 839.942 1116.87 846.11 1112.68 846.992 L 1111.84 845.639 z"/>
<path transform="translate(0,0)" fill="rgb(68,68,68)" d="M 1179.98 591.226 C 1190.02 606.078 1193.52 617.743 1201.7 631.049 C 1201.54 631.992 1201.35 633.476 1201.08 634.337 C 1198.56 631.09 1198.32 628.48 1195.58 626.965 L 1194.58 631.267 L 1193.61 626.771 C 1190.81 625.096 1191.91 625.585 1187.84 625.84 C 1186.6 624.173 1186.52 619.355 1184.3 617.239 C 1183.39 616.372 1183.78 614.332 1183.82 612.902 C 1185.78 606.959 1181.67 597.957 1179.98 591.226 z"/>
<path transform="translate(0,0)" fill="rgb(166,165,165)" d="M 951.369 308.856 C 952.002 301.82 947.957 283.009 953.413 277.816 C 954.196 282.916 949.242 292.751 954.756 298.511 C 956.019 296.606 956.263 295.835 957.11 293.69 L 957.942 294.838 C 957.965 299.235 958.1 299.938 959.381 304.152 L 960.817 303.795 L 961.433 305.605 C 959.296 307.345 958.606 307.575 957.966 310.083 L 959.743 315.455 L 957.408 317.504 C 955.862 314.371 953.522 311.642 951.369 308.856 z"/>
<path transform="translate(0,0)" fill="rgb(217,215,216)" d="M 960.446 334.683 C 952.168 328.434 948.585 318.95 951.369 308.856 C 953.522 311.642 955.862 314.371 957.408 317.504 C 957.955 318.265 959.133 320.057 959.766 320.564 C 959.979 322.596 960.324 328.185 961.161 329.615 L 960.446 334.683 z"/>
<path transform="translate(0,0)" fill="rgb(131,130,130)" d="M 1141.05 822.541 C 1142.25 824.149 1142.15 824.045 1144.02 824.767 C 1148.7 823.517 1155 818.417 1159.36 815.541 C 1157.9 818.621 1157.64 819.058 1155.3 821.534 L 1156.05 823.152 L 1158.44 823.864 C 1157.67 826.761 1154.78 828.63 1151.86 828.857 C 1150.32 827.977 1149.04 827.26 1147.45 826.481 C 1138.61 833.098 1143.78 836.173 1135.14 840.864 L 1134.43 838.471 C 1136.85 835.752 1141 829.121 1142.06 825.597 L 1140.51 823.429 L 1141.05 822.541 z"/>
<path transform="translate(0,0)" fill="rgb(230,230,229)" d="M 1026.42 209.06 C 1032.83 209.482 1030.35 207.169 1032.96 207.904 C 1032.16 213.117 1022.52 222.331 1017.58 223.404 L 1017.22 221.476 L 1015.97 221.159 C 1014.28 223.558 1013.63 224.51 1011.52 226.529 C 1012.18 224.612 1012.87 222.705 1013.59 220.809 C 1019.72 216.973 1021.59 214.593 1026.42 209.06 z"/>
<path transform="translate(0,0)" fill="rgb(68,68,68)" d="M 1062.43 883.209 C 1062.7 876.392 1063.01 871.813 1070.72 870.586 C 1073.32 872.377 1072.64 871.352 1073.28 874.402 C 1072.09 877.162 1071.21 877.521 1068.6 878.927 C 1066.49 880.909 1065.18 882.616 1062.43 883.209 z"/>
<path transform="translate(0,0)" fill="rgb(38,37,38)" d="M 1068.6 878.927 L 1071.62 880.193 C 1072.49 885.904 1071.36 888.289 1065.39 889.165 C 1062.03 887.907 1059.69 884.052 1058.72 880.743 C 1060.93 881.51 1060.81 881.481 1062.43 883.209 C 1065.18 882.616 1066.49 880.909 1068.6 878.927 z"/>
<path transform="translate(0,0)" fill="rgb(230,230,229)" d="M 964.698 268.552 L 966.067 269.74 C 967.085 274.337 963.476 282.153 961.206 286.321 L 959.818 285.952 L 958.862 284.075 C 959.006 278.998 962.104 272.846 964.698 268.552 z"/>
<path transform="translate(0,0)" fill="rgb(217,215,216)" d="M 1044.39 233.9 C 1044.82 237.096 1042.69 239.685 1040.96 242.442 L 1040.36 241.034 C 1040.77 237.213 1041.53 237.448 1044.39 233.9 z"/>
</svg>